<?xml version="1.0" standalone="no"?>
<!DOCTYPE svg PUBLIC "-//W3C//DTD SVG 1.1//EN" "http://www.w3.org/Graphics/SVG/1.1/DTD/svg11.dtd" >
<svg>
<metadata>
Created by FontForge 20090622 at Tue Sep 13 18:50:05 2016
 By deploy user
</metadata>
<defs>
<font id="kt-icon" horiz-adv-x="512" >
  <font-face 
    font-family="kt-icon"
    font-weight="400"
    font-stretch="normal"
    units-per-em="512"
    panose-1="0 0 0 0 0 0 0 0 0 0"
    ascent="480"
    descent="-32"
    bbox="-32 -37 896 512"
    underline-thickness="0"
    underline-position="0"
    unicode-range="U+0001-U+FFFD"
  />
<missing-glyph 
 />
    <glyph glyph-name=".notdef" unicode="&#xfffd;" 
 />
    <glyph glyph-name="glyph1" horiz-adv-x="0" 
d="M0 0v0v0v0z" />
    <glyph glyph-name="glyph1" horiz-adv-x="0" 
d="M0 0v0v0v0z" />
    <glyph glyph-name="uni0001" horiz-adv-x="0" 
d="M0 0v0v0v0z" />
    <glyph glyph-name="space" unicode=" " horiz-adv-x="256" 
d="M0 0v0v0v0z" />
    <glyph glyph-name="uniE000" unicode="&#xe000;" 
d="M24 -32h224q3 0 5.5 2.5t2.5 5.5t-2.5 5.5t-5.5 2.5h-224q-3 0 -5.5 2.5t-2.5 5.5v464q0 3 2.5 5.5t5.5 2.5h336q3 0 5.5 -2.5t2.5 -5.5v-80q0 -3 2.5 -5.5t5.5 -2.5t5.5 2.5t2.5 5.5v80q0 10 -7 17t-17 7h-336q-10 0 -17 -7t-7 -17v-464q0 -10 7 -17t17 -7zM288 312
v-320q0 -10 7 -17t17 -7h176q10 0 17 7t7 17v320q0 10 -7 17t-17 7h-176q-10 0 -17 -7t-7 -17zM496 312v-320q0 -3 -2.5 -5.5t-5.5 -2.5h-176q-3 0 -5.5 2.5t-2.5 5.5v320q0 3 2.5 5.5t5.5 2.5h176q3 0 5.5 -2.5t2.5 -5.5zM176 32q0 -7 4.5 -11.5t11.5 -4.5t11.5 4.5
t4.5 11.5t-4.5 11.5t-11.5 4.5t-11.5 -4.5t-4.5 -11.5zM384 32q0 -7 4.5 -11.5t11.5 -4.5t11.5 4.5t4.5 11.5t-4.5 11.5t-11.5 4.5t-11.5 -4.5t-4.5 -11.5z" />
    <glyph glyph-name="uniE001" unicode="&#xe001;" horiz-adv-x="672" 
d="M56 64q3 0 5.5 2.5t2.5 5.5v376q0 7 4.5 11.5t11.5 4.5h512q7 0 11.5 -5t4.5 -12v-375q0 -3 2.5 -5.5t5.5 -2.5t5.5 2.5t2.5 5.5v375q0 14 -9.5 23.5t-22.5 9.5h-512q-14 0 -23 -9t-9 -23v-376q0 -3 2.5 -5.5t5.5 -2.5zM104 432q-3 0 -5.5 -2.5t-2.5 -5.5v-352
q0 -3 2.5 -5.5t5.5 -2.5h464q3 0 5.5 2.5t2.5 5.5v352q0 3 -2.5 5.5t-5.5 2.5h-464zM560 80h-448v336h448v-336zM664 32h-656q-3 0 -5.5 -2.5t-2.5 -5.5v-19q0 -14 13.5 -25.5t26.5 -11.5h592q14 0 27 13t13 27v16q0 3 -2.5 5.5t-5.5 2.5zM656 8q0 -7 -8.5 -15.5t-15.5 -8.5
h-592q-8 0 -16 7.5t-8 13.5v11h640v-8z" />
    <glyph glyph-name="uniE002" unicode="&#xe002;" horiz-adv-x="624" 
d="M24 80h280v-24q0 -3 2.5 -5.5t5.5 -2.5t5.5 2.5t2.5 5.5v24h280q10 0 17 7t7 17v352q0 10 -7 17t-17 7h-576q-10 0 -17 -7t-7 -17v-352q0 -10 7 -17t17 -7zM16 456q0 3 2.5 5.5t5.5 2.5h576q3 0 5.5 -2.5t2.5 -5.5v-352q0 -3 -2.5 -5.5t-5.5 -2.5h-576q-3 0 -5.5 2.5
t-2.5 5.5v352zM56 128h512q3 0 5.5 2.5t2.5 5.5v288q0 3 -2.5 5.5t-5.5 2.5h-512q-3 0 -5.5 -2.5t-2.5 -5.5v-288q0 -3 2.5 -5.5t5.5 -2.5zM64 416h496v-272h-496v272zM224 32q-14 0 -23 -9t-9 -23v-24q0 -3 2.5 -5.5t5.5 -2.5h224q3 0 5.5 2.5t2.5 5.5v23q0 14 -9.5 23.5
t-22.5 9.5h-176zM416 -1v-15h-208v16q0 7 4.5 11.5t11.5 4.5h176q7 0 11.5 -5t4.5 -12z" />
    <glyph glyph-name="uniE003" unicode="&#xe003;" horiz-adv-x="400" 
d="M24 -32h352q10 0 17 7t7 17v464q0 10 -7 17t-17 7h-352q-10 0 -17 -7t-7 -17v-464q0 -10 7 -17t17 -7zM16 456q0 3 2.5 5.5t5.5 2.5h352q3 0 5.5 -2.5t2.5 -5.5v-464q0 -3 -2.5 -5.5t-5.5 -2.5h-352q-3 0 -5.5 2.5t-2.5 5.5v464zM56 48h288q3 0 5.5 2.5t2.5 5.5v368
q0 3 -2.5 5.5t-5.5 2.5h-288q-3 0 -5.5 -2.5t-2.5 -5.5v-368q0 -3 2.5 -5.5t5.5 -2.5zM64 416h272v-352h-272v352zM192 16q0 -7 4.5 -11.5t11.5 -4.5t11.5 4.5t4.5 11.5t-4.5 11.5t-11.5 4.5t-11.5 -4.5t-4.5 -11.5z" />
    <glyph glyph-name="uniE004" unicode="&#xe004;" horiz-adv-x="304" 
d="M24 -32h256q10 0 17 7t7 17v464q0 10 -7 17t-17 7h-256q-10 0 -17 -7t-7 -17v-464q0 -10 7 -17t17 -7zM16 456q0 3 2.5 5.5t5.5 2.5h256q3 0 5.5 -2.5t2.5 -5.5v-464q0 -3 -2.5 -5.5t-5.5 -2.5h-256q-3 0 -5.5 2.5t-2.5 5.5v464zM40 48h224q3 0 5.5 2.5t2.5 5.5v336
q0 3 -2.5 5.5t-5.5 2.5h-224q-3 0 -5.5 -2.5t-2.5 -5.5v-336q0 -3 2.5 -5.5t5.5 -2.5zM48 384h208v-320h-208v320zM144 16q0 -7 4.5 -11.5t11.5 -4.5t11.5 4.5t4.5 11.5t-4.5 11.5t-11.5 4.5t-11.5 -4.5t-4.5 -11.5zM120 416h64q3 0 5.5 2.5t2.5 5.5t-2.5 5.5t-5.5 2.5h-64
q-3 0 -5.5 -2.5t-2.5 -5.5t2.5 -5.5t5.5 -2.5z" />
    <glyph glyph-name="uniE005" unicode="&#xe005;" horiz-adv-x="384" 
d="M24 -32h336q10 0 17 7t7 17v336v0.5v0.5v0.5v0.5q-1 1 -1 1.5t-1 1.5v0v0l-128 144v0v0q-1 1 -2 1.5t-2 1.5v0h-1h-0.5h-0.5h-224q-10 0 -17 -7t-7 -17v-464q0 -10 7 -17t17 -7v0zM256 451l102 -115h-94q-3 0 -5.5 4t-2.5 8v103zM16 456q0 3 2.5 5.5t5.5 2.5h216v-116
q0 -10 7 -19t17 -9h104v-328q0 -3 -2.5 -5.5t-5.5 -2.5h-336q-3 0 -5.5 2.5t-2.5 5.5v464zM88 256h208q3 0 5.5 2.5t2.5 5.5t-2.5 5.5t-5.5 2.5h-208q-3 0 -5.5 -2.5t-2.5 -5.5t2.5 -5.5t5.5 -2.5zM88 192h208q3 0 5.5 2.5t2.5 5.5t-2.5 5.5t-5.5 2.5h-208q-3 0 -5.5 -2.5
t-2.5 -5.5t2.5 -5.5t5.5 -2.5zM88 320h96q3 0 5.5 2.5t2.5 5.5t-2.5 5.5t-5.5 2.5h-96q-3 0 -5.5 -2.5t-2.5 -5.5t2.5 -5.5t5.5 -2.5zM88 128h208q3 0 5.5 2.5t2.5 5.5t-2.5 5.5t-5.5 2.5h-208q-3 0 -5.5 -2.5t-2.5 -5.5t2.5 -5.5t5.5 -2.5zM88 64h208q3 0 5.5 2.5t2.5 5.5
t-2.5 5.5t-5.5 2.5h-208q-3 0 -5.5 -2.5t-2.5 -5.5t2.5 -5.5t5.5 -2.5z" />
    <glyph glyph-name="uniE006" unicode="&#xe006;" horiz-adv-x="544" 
d="M24 32h288q10 0 17 7t7 17v304v0.5v0.5v0.5v0.5q-1 1 -1.5 2t-0.5 2l-112 112q-1 0 -2 0.5t-2 1.5h-0.5h-0.5h-0.5h-0.5h-192q-10 0 -17 -7t-7 -17v-400q0 -10 7 -17t17 -7v0zM224 453l85 -85h-77q-3 0 -5.5 2.5t-2.5 5.5v77zM16 456q0 3 2.5 5.5t5.5 2.5h184v-88
q0 -10 7 -17t17 -7h88v-296q0 -3 -2.5 -5.5t-5.5 -2.5h-288q-3 0 -5.5 2.5t-2.5 5.5v400v0zM72 288h192q3 0 5.5 2.5t2.5 5.5t-2.5 5.5t-5.5 2.5h-192q-3 0 -5.5 -2.5t-2.5 -5.5t2.5 -5.5t5.5 -2.5zM72 224h192q3 0 5.5 2.5t2.5 5.5t-2.5 5.5t-5.5 2.5h-192q-3 0 -5.5 -2.5
t-2.5 -5.5t2.5 -5.5t5.5 -2.5zM72 352h80q3 0 5.5 2.5t2.5 5.5t-2.5 5.5t-5.5 2.5h-80q-3 0 -5.5 -2.5t-2.5 -5.5t2.5 -5.5t5.5 -2.5zM72 160h192q3 0 5.5 2.5t2.5 5.5t-2.5 5.5t-5.5 2.5h-192q-3 0 -5.5 -2.5t-2.5 -5.5t2.5 -5.5t5.5 -2.5zM72 96h192q3 0 5.5 2.5t2.5 5.5
t-2.5 5.5t-5.5 2.5h-192q-3 0 -5.5 -2.5t-2.5 -5.5t2.5 -5.5t5.5 -2.5zM344 400h72v-88q0 -10 7 -17t17 -7h88v-296q0 -3 -2.5 -5.5t-5.5 -2.5h-288q-3 0 -5.5 2.5t-2.5 5.5v16q0 3 -2.5 5.5t-5.5 2.5t-5.5 -2.5t-2.5 -5.5v-16q0 -10 7 -17t17 -7h288q10 0 17 7t7 17v304
v0.5v0.5v0.5v0.5q-1 1 -1.5 2t-0.5 2l-112 112q-1 0 -2 0.5t-2 1.5h-0.5h-0.5h-0.5h-0.5h-80q-3 0 -5.5 -2.5t-2.5 -5.5t2.5 -5.5t5.5 -2.5v0zM440 304q-3 0 -5.5 2.5t-2.5 5.5v77l85 -85h-77zM376 224h96q3 0 5.5 2.5t2.5 5.5t-2.5 5.5t-5.5 2.5h-96q-3 0 -5.5 -2.5
t-2.5 -5.5t2.5 -5.5t5.5 -2.5zM376 160h96q3 0 5.5 2.5t2.5 5.5t-2.5 5.5t-5.5 2.5h-96q-3 0 -5.5 -2.5t-2.5 -5.5t2.5 -5.5t5.5 -2.5zM376 96h96q3 0 5.5 2.5t2.5 5.5t-2.5 5.5t-5.5 2.5h-96q-3 0 -5.5 -2.5t-2.5 -5.5t2.5 -5.5t5.5 -2.5zM376 32h96q3 0 5.5 2.5t2.5 5.5
t-2.5 5.5t-5.5 2.5h-96q-3 0 -5.5 -2.5t-2.5 -5.5t2.5 -5.5t5.5 -2.5z" />
    <glyph glyph-name="uniE007" unicode="&#xe007;" horiz-adv-x="528" 
d="M24 -32h336q10 0 17 7t7 17v120v0v0l1.5 1.5t1.5 0.5l127 -128l3 -1.5t3 -0.5t3 0.5l3 1.5q2 3 2 6t-2 6l-127 126q15 15 24 34.5t9 41.5q0 28 -13 51t-35 37v0v0v40v0.5v0.5v0.5v0.5q-1 1 -1 1.5t-1 1.5v0v0l-128 144v0v0q-1 1 -2 1.5t-2 1.5v0h-1h-0.5h-0.5h-224
q-10 0 -17 -7t-7 -17v-464q0 -10 7 -17t17 -7v0zM416 200q0 -36 -26 -62t-62 -26t-62 26t-26 62t26 62t62 26t62 -26t26 -62zM256 451l102 -115h-94q-3 0 -5.5 4t-2.5 8v103zM16 456q0 3 2.5 5.5t5.5 2.5h216v-116q0 -10 7 -19t17 -9h104v-24q-9 4 -19 6t-21 2
q-22 0 -41.5 -8.5t-33.5 -23.5h-165q-3 0 -5.5 -2.5t-2.5 -5.5t2.5 -5.5t5.5 -2.5h153q-7 -11 -11.5 -23t-5.5 -25h-136q-3 0 -5.5 -2.5t-2.5 -5.5t2.5 -5.5t5.5 -2.5h136q1 -13 5.5 -25t10.5 -23h-152q-3 0 -5.5 -2.5t-2.5 -5.5t2.5 -5.5t5.5 -2.5h164h0.5h0.5
q14 -15 33.5 -23.5t41.5 -8.5q11 0 21 2t19 6v-112q0 -3 -2.5 -5.5t-5.5 -2.5h-336q-3 0 -5.5 2.5t-2.5 5.5v464zM88 320h96q3 0 5.5 2.5t2.5 5.5t-2.5 5.5t-5.5 2.5h-96q-3 0 -5.5 -2.5t-2.5 -5.5t2.5 -5.5t5.5 -2.5zM88 64h208q3 0 5.5 2.5t2.5 5.5t-2.5 5.5t-5.5 2.5
h-208q-3 0 -5.5 -2.5t-2.5 -5.5t2.5 -5.5t5.5 -2.5z" />
    <glyph glyph-name="uniE008" unicode="&#xe008;" horiz-adv-x="448" 
d="M24 -32h400q10 0 17 7t7 17v448q0 10 -7 17t-17 7h-64q-3 0 -5.5 -2.5t-2.5 -5.5t2.5 -5.5t5.5 -2.5h64q4 0 6 -2t2 -6v-448q0 -4 -2 -6t-6 -2h-400q-4 0 -6 2t-2 6v448q0 4 2 6t6 2h64q3 0 5.5 2.5t2.5 5.5t-2.5 5.5t-5.5 2.5h-64q-10 0 -17 -7t-7 -17v-448q0 -10 7 -17
t17 -7zM88 400q3 0 5.5 2.5t2.5 5.5t-2.5 5.5t-5.5 2.5h-32q-3 0 -5.5 -2.5t-2.5 -5.5v-384q0 -3 2.5 -5.5t5.5 -2.5h336q3 0 5.5 2.5t2.5 5.5v384q0 3 -2.5 5.5t-5.5 2.5h-32q-3 0 -5.5 -2.5t-2.5 -5.5t2.5 -5.5t5.5 -2.5h24v-368h-320v368h24zM144 368h160q15 0 23.5 8.5
t8.5 23.5v72q0 3 -2.5 5.5t-5.5 2.5h-208q-3 0 -5.5 -2.5t-2.5 -5.5v-72q0 -15 8.5 -23.5t23.5 -8.5zM128 464h192v-64q0 -8 -4 -12t-12 -4h-160q-8 0 -12 4t-4 12v64zM136 224h176q3 0 5.5 2.5t2.5 5.5t-2.5 5.5t-5.5 2.5h-176q-3 0 -5.5 -2.5t-2.5 -5.5t2.5 -5.5t5.5 -2.5
zM136 288h176q3 0 5.5 2.5t2.5 5.5t-2.5 5.5t-5.5 2.5h-176q-3 0 -5.5 -2.5t-2.5 -5.5t2.5 -5.5t5.5 -2.5zM136 160h176q3 0 5.5 2.5t2.5 5.5t-2.5 5.5t-5.5 2.5h-176q-3 0 -5.5 -2.5t-2.5 -5.5t2.5 -5.5t5.5 -2.5zM136 96h176q3 0 5.5 2.5t2.5 5.5t-2.5 5.5t-5.5 2.5h-176
q-3 0 -5.5 -2.5t-2.5 -5.5t2.5 -5.5t5.5 -2.5z" />
    <glyph glyph-name="uniE009" unicode="&#xe009;" horiz-adv-x="672" 
d="M592 16q14 0 23 9t9 23v424q0 3 -2.5 5.5t-5.5 2.5t-5.5 -2.5t-2.5 -5.5v-424q0 -10 -6 -13t-10 -3q-1 0 -8.5 2t-7.5 14v424q0 3 -2.5 5.5t-5.5 2.5t-5.5 -2.5t-2.5 -5.5v-424q0 -16 10 -24t22 -8zM72 144h160q3 0 5.5 2.5t2.5 5.5v144q0 3 -2.5 5.5t-5.5 2.5h-160
q-3 0 -5.5 -2.5t-2.5 -5.5v-144q0 -3 2.5 -5.5t5.5 -2.5zM80 288h144v-128h-144v128zM72 352h384q3 0 5.5 2.5t2.5 5.5v64q0 3 -2.5 5.5t-5.5 2.5h-384q-3 0 -5.5 -2.5t-2.5 -5.5v-64q0 -3 2.5 -5.5t5.5 -2.5zM80 416h368v-48h-368v48zM456 304h-160q-3 0 -5.5 -2.5
t-2.5 -5.5t2.5 -5.5t5.5 -2.5h160q3 0 5.5 2.5t2.5 5.5t-2.5 5.5t-5.5 2.5zM456 256h-160q-3 0 -5.5 -2.5t-2.5 -5.5t2.5 -5.5t5.5 -2.5h160q3 0 5.5 2.5t2.5 5.5t-2.5 5.5t-5.5 2.5zM456 208h-160q-3 0 -5.5 -2.5t-2.5 -5.5t2.5 -5.5t5.5 -2.5h160q3 0 5.5 2.5t2.5 5.5
t-2.5 5.5t-5.5 2.5zM456 160h-160q-3 0 -5.5 -2.5t-2.5 -5.5t2.5 -5.5t5.5 -2.5h160q3 0 5.5 2.5t2.5 5.5t-2.5 5.5t-5.5 2.5zM456 112h-160q-3 0 -5.5 -2.5t-2.5 -5.5t2.5 -5.5t5.5 -2.5h160q3 0 5.5 2.5t2.5 5.5t-2.5 5.5t-5.5 2.5zM72 96h160q3 0 5.5 2.5t2.5 5.5
t-2.5 5.5t-5.5 2.5h-160q-3 0 -5.5 -2.5t-2.5 -5.5t2.5 -5.5t5.5 -2.5zM456 64h-160q-3 0 -5.5 -2.5t-2.5 -5.5t2.5 -5.5t5.5 -2.5h160q3 0 5.5 2.5t2.5 5.5t-2.5 5.5t-5.5 2.5zM72 48h160q3 0 5.5 2.5t2.5 5.5t-2.5 5.5t-5.5 2.5h-160q-3 0 -5.5 -2.5t-2.5 -5.5t2.5 -5.5
t5.5 -2.5zM80 -31h512v0v0h0.5h0.5q32 0 55 23t23 56v424q0 3 -2 5t-5 2t-5 -2t-2 -5v-424q0 -27 -19 -46t-46 -19t-46 19t-19 46v424q0 3 -2 5t-5 2h-512q-3 0 -5 -2t-2 -5v-424q0 -33 23 -56t56 -23zM15 465h498v-417q0 -4 0.5 -7.5t0.5 -6.5q0 -1 0.5 -1.5t0.5 -1.5
q1 -3 2 -6.5t2 -6.5q0 -1 0.5 -1.5l0.5 -0.5q1 -3 2.5 -6t3.5 -5v-1l1 -1q2 -2 4 -4.5t4 -5.5q1 0 1.5 -0.5t0.5 -1.5q2 -2 4.5 -4t5.5 -4h-467q-27 0 -46 19t-19 46v417v0z" />
    <glyph glyph-name="uniE00A" unicode="&#xe00a;" horiz-adv-x="432" 
d="M376 -32q10 0 17 7t7 17v448q0 10 -7 17t-17 7h-320q-10 0 -17 -7t-7 -17v-19q0 -3 2.5 -5.5t5.5 -2.5t5.5 2.5t2.5 5.5v19q0 4 2 6t6 2h73v-464h-73q-4 0 -6 2t-2 6v15q0 3 -2.5 5.5t-5.5 2.5t-5.5 -2.5t-2.5 -5.5v-15q0 -10 7 -17t17 -7h320zM144 448h232q4 0 6 -2
t2 -6v-448q0 -4 -2 -6t-6 -2h-232v464zM432 8v416q0 3 -2.5 5.5t-5.5 2.5t-5.5 -2.5t-2.5 -5.5v-416q0 -3 2.5 -5.5t5.5 -2.5t5.5 2.5t2.5 5.5zM8 304h64q3 0 5.5 2.5t2.5 5.5t-2.5 5.5t-5.5 2.5h-64q-3 0 -5.5 -2.5t-2.5 -5.5t2.5 -5.5t5.5 -2.5zM8 368h64q3 0 5.5 2.5
t2.5 5.5t-2.5 5.5t-5.5 2.5h-64q-3 0 -5.5 -2.5t-2.5 -5.5t2.5 -5.5t5.5 -2.5zM8 240h64q3 0 5.5 2.5t2.5 5.5t-2.5 5.5t-5.5 2.5h-64q-3 0 -5.5 -2.5t-2.5 -5.5t2.5 -5.5t5.5 -2.5zM8 112h64q3 0 5.5 2.5t2.5 5.5t-2.5 5.5t-5.5 2.5h-64q-3 0 -5.5 -2.5t-2.5 -5.5t2.5 -5.5
t5.5 -2.5zM8 176h64q3 0 5.5 2.5t2.5 5.5t-2.5 5.5t-5.5 2.5h-64q-3 0 -5.5 -2.5t-2.5 -5.5t2.5 -5.5t5.5 -2.5zM8 48h64q3 0 5.5 2.5t2.5 5.5t-2.5 5.5t-5.5 2.5h-64q-3 0 -5.5 -2.5t-2.5 -5.5t2.5 -5.5t5.5 -2.5z" />
    <glyph glyph-name="uniE00B" unicode="&#xe00b;" horiz-adv-x="672" 
d="M600 464h-256q-5 0 -9 -1.5t-7 -4.5q-3 3 -7 4.5t-9 1.5h-256q-10 0 -17 -7t-7 -17v-448q0 -10 7 -17t17 -7h256q5 0 9 1.5t7 4.5q3 -3 7 -4.5t9 -1.5h256q10 0 17 7t7 17v448q0 10 -7 17t-17 7zM312 -16h-256q-4 0 -6 2t-2 6v448q0 4 2 6t6 2h256q4 0 6 -2t2 -6v-448
q0 -4 -2 -6t-6 -2zM608 -8q0 -4 -2 -6t-6 -2h-256q-4 0 -6 2t-2 6v448q0 4 2 6t6 2h256q4 0 6 -2t2 -6v-448zM648 432q-3 0 -5.5 -2.5t-2.5 -5.5v-416q0 -3 2.5 -5.5t5.5 -2.5t5.5 2.5t2.5 5.5v416q0 3 -2.5 5.5t-5.5 2.5zM8 0q3 0 5.5 2.5t2.5 5.5v416q0 3 -2.5 5.5
t-5.5 2.5t-5.5 -2.5t-2.5 -5.5v-416q0 -3 2.5 -5.5t5.5 -2.5zM280 320h-192q-3 0 -5.5 -2.5t-2.5 -5.5t2.5 -5.5t5.5 -2.5h192q3 0 5.5 2.5t2.5 5.5t-2.5 5.5t-5.5 2.5zM280 256h-192q-3 0 -5.5 -2.5t-2.5 -5.5t2.5 -5.5t5.5 -2.5h192q3 0 5.5 2.5t2.5 5.5t-2.5 5.5
t-5.5 2.5zM280 384h-192q-3 0 -5.5 -2.5t-2.5 -5.5t2.5 -5.5t5.5 -2.5h192q3 0 5.5 2.5t2.5 5.5t-2.5 5.5t-5.5 2.5zM280 192h-192q-3 0 -5.5 -2.5t-2.5 -5.5t2.5 -5.5t5.5 -2.5h192q3 0 5.5 2.5t2.5 5.5t-2.5 5.5t-5.5 2.5zM280 128h-192q-3 0 -5.5 -2.5t-2.5 -5.5
t2.5 -5.5t5.5 -2.5h192q3 0 5.5 2.5t2.5 5.5t-2.5 5.5t-5.5 2.5zM280 64h-192q-3 0 -5.5 -2.5t-2.5 -5.5t2.5 -5.5t5.5 -2.5h192q3 0 5.5 2.5t2.5 5.5t-2.5 5.5t-5.5 2.5zM568 320h-192q-3 0 -5.5 -2.5t-2.5 -5.5t2.5 -5.5t5.5 -2.5h192q3 0 5.5 2.5t2.5 5.5t-2.5 5.5
t-5.5 2.5zM568 256h-192q-3 0 -5.5 -2.5t-2.5 -5.5t2.5 -5.5t5.5 -2.5h192q3 0 5.5 2.5t2.5 5.5t-2.5 5.5t-5.5 2.5zM568 384h-192q-3 0 -5.5 -2.5t-2.5 -5.5t2.5 -5.5t5.5 -2.5h192q3 0 5.5 2.5t2.5 5.5t-2.5 5.5t-5.5 2.5zM568 192h-192q-3 0 -5.5 -2.5t-2.5 -5.5
t2.5 -5.5t5.5 -2.5h192q3 0 5.5 2.5t2.5 5.5t-2.5 5.5t-5.5 2.5zM568 128h-192q-3 0 -5.5 -2.5t-2.5 -5.5t2.5 -5.5t5.5 -2.5h192q3 0 5.5 2.5t2.5 5.5t-2.5 5.5t-5.5 2.5zM568 64h-192q-3 0 -5.5 -2.5t-2.5 -5.5t2.5 -5.5t5.5 -2.5h192q3 0 5.5 2.5t2.5 5.5t-2.5 5.5
t-5.5 2.5z" />
    <glyph glyph-name="uniE00C" unicode="&#xe00c;" horiz-adv-x="672" 
d="M664 320q-3 0 -5.5 -2.5t-2.5 -5.5v-320q0 -3 -2.5 -5.5t-5.5 -2.5h-624q-3 0 -5.5 2.5t-2.5 5.5v320q0 3 -2.5 5.5t-5.5 2.5t-5.5 -2.5t-2.5 -5.5v-320q0 -10 7 -17t17 -7h624q10 0 17 7t7 17v320q0 3 -2.5 5.5t-5.5 2.5zM648 480h-624q-10 0 -17 -7t-7 -17v-96
q0 -3 2.5 -5.5t5.5 -2.5h656q3 0 5.5 2.5t2.5 5.5v96q0 10 -7 17t-17 7zM656 368h-640v88q0 3 2.5 5.5t5.5 2.5h624q3 0 5.5 -2.5t2.5 -5.5v-88zM280 32q3 0 5.5 2.5t2.5 5.5v256q0 3 -2.5 5.5t-5.5 2.5h-208q-3 0 -5.5 -2.5t-2.5 -5.5v-256q0 -3 2.5 -5.5t5.5 -2.5h208z
M80 288h192v-240h-192v240zM360 240h240q3 0 5.5 2.5t2.5 5.5t-2.5 5.5t-5.5 2.5h-240q-3 0 -5.5 -2.5t-2.5 -5.5t2.5 -5.5t5.5 -2.5zM360 160h240q3 0 5.5 2.5t2.5 5.5t-2.5 5.5t-5.5 2.5h-240q-3 0 -5.5 -2.5t-2.5 -5.5t2.5 -5.5t5.5 -2.5zM360 80h240q3 0 5.5 2.5
t2.5 5.5t-2.5 5.5t-5.5 2.5h-240q-3 0 -5.5 -2.5t-2.5 -5.5t2.5 -5.5t5.5 -2.5zM48 416q0 -7 4.5 -11.5t11.5 -4.5t11.5 4.5t4.5 11.5t-4.5 11.5t-11.5 4.5t-11.5 -4.5t-4.5 -11.5zM112 416q0 -7 4.5 -11.5t11.5 -4.5t11.5 4.5t4.5 11.5t-4.5 11.5t-11.5 4.5t-11.5 -4.5
t-4.5 -11.5zM176 416q0 -7 4.5 -11.5t11.5 -4.5t11.5 4.5t4.5 11.5t-4.5 11.5t-11.5 4.5t-11.5 -4.5t-4.5 -11.5z" />
    <glyph glyph-name="uniE00D" unicode="&#xe00d;" horiz-adv-x="544" 
d="M544 -8v304q0 3 -2.5 5.5t-5.5 2.5t-5.5 -2.5t-2.5 -5.5v-304q0 -3 -2.5 -5.5t-5.5 -2.5h-496q-3 0 -5.5 2.5t-2.5 5.5v304q0 3 -2.5 5.5t-5.5 2.5t-5.5 -2.5t-2.5 -5.5v-304q0 -10 7 -17t17 -7h496q10 0 17 7t7 17zM72 112q-3 0 -5.5 -2.5t-2.5 -5.5t2.5 -5.5t5.5 -2.5
h24v-56q0 -3 2.5 -5.5t5.5 -2.5t5.5 2.5t2.5 5.5v56h96v-56q0 -3 2.5 -5.5t5.5 -2.5t5.5 2.5t2.5 5.5v56h96v-56q0 -3 2.5 -5.5t5.5 -2.5t5.5 2.5t2.5 5.5v56h96v-56q0 -3 2.5 -5.5t5.5 -2.5t5.5 2.5t2.5 5.5v56h24q3 0 5.5 2.5t2.5 5.5t-2.5 5.5t-5.5 2.5h-24v80h24
q3 0 5.5 2.5t2.5 5.5t-2.5 5.5t-5.5 2.5h-24v72q0 3 -2.5 5.5t-5.5 2.5t-5.5 -2.5t-2.5 -5.5v-72h-96v72q0 3 -2.5 5.5t-5.5 2.5t-5.5 -2.5t-2.5 -5.5v-72h-96v72q0 3 -2.5 5.5t-5.5 2.5t-5.5 -2.5t-2.5 -5.5v-72h-96v72q0 3 -2.5 5.5t-5.5 2.5t-5.5 -2.5t-2.5 -5.5v-72h-24
q-3 0 -5.5 -2.5t-2.5 -5.5t2.5 -5.5t5.5 -2.5h24v-80h-24zM432 192v-80h-96v80h96zM320 192v-80h-96v80h96zM112 192h96v-80h-96v80zM456 432h68q1 0 2.5 -1t1.5 -7v-72h-512v72q0 3 2.5 5.5t5.5 2.5h64q3 0 5.5 2.5t2.5 5.5t-2.5 5.5t-5.5 2.5h-64q-10 0 -17 -7t-7 -17v-80
q0 -3 2.5 -5.5t5.5 -2.5h528q3 0 5.5 2.5t2.5 5.5v80q0 13 -6.5 18.5t-13.5 5.5h-68q-3 0 -5.5 -2.5t-2.5 -5.5t2.5 -5.5t5.5 -2.5zM360 432q3 0 5.5 2.5t2.5 5.5t-2.5 5.5t-5.5 2.5h-176q-3 0 -5.5 -2.5t-2.5 -5.5t2.5 -5.5t5.5 -2.5h176zM144 408v64q0 3 -2.5 5.5
t-5.5 2.5t-5.5 -2.5t-2.5 -5.5v-64q0 -3 2.5 -5.5t5.5 -2.5t5.5 2.5t2.5 5.5zM408 400q3 0 5.5 2.5t2.5 5.5v64q0 3 -2.5 5.5t-5.5 2.5t-5.5 -2.5t-2.5 -5.5v-64q0 -3 2.5 -5.5t5.5 -2.5z" />
    <glyph glyph-name="uniE00E" unicode="&#xe00e;" horiz-adv-x="496" 
d="M8 432q-3 0 -5.5 -2.5t-2.5 -5.5v-272q0 -10 7 -17t17 -7h448q10 0 17 7t7 17v272q0 3 -2.5 5.5t-5.5 2.5t-5.5 -2.5t-2.5 -5.5v-272q0 -3 -2.5 -5.5t-5.5 -2.5h-448q-3 0 -5.5 2.5t-2.5 5.5v272q0 3 -2.5 5.5t-5.5 2.5zM520 480h-544q-3 0 -5.5 -2.5t-2.5 -5.5t2.5 -5.5
t5.5 -2.5h544q3 0 5.5 2.5t2.5 5.5t-2.5 5.5t-5.5 2.5zM190 350q-3 2 -6 2t-5 -2l-96 -80q-3 -2 -3 -5.5t2 -5.5q2 -3 5.5 -3t5.5 2l91 75l90 -91l3 -1.5t3 -0.5t3 0.5l3 1.5l114 115v-61q0 -3 2.5 -5.5t5.5 -2.5t5.5 2.5t2.5 5.5v80v1.5t-1 1.5q0 2 -1 3t-3 1q-1 1 -1.5 1
h-1.5h-80q-3 0 -5.5 -2.5t-2.5 -5.5t2.5 -5.5t5.5 -2.5h61l-109 -109zM129 -28q1 -3 4.5 -4t6.5 1l108 57l108 -57q1 -1 2 -1h2q2 0 4 1t3 3q2 3 1 6.5t-4 4.5l-111 58q2 1 2.5 2.5t0.5 3.5v41q0 3 -2.5 5.5t-5.5 2.5t-5.5 -2.5t-2.5 -5.5v-41q0 -2 0.5 -3.5t2.5 -2.5
l-111 -58q-3 -1 -4 -4.5t1 -6.5v0z" />
    <glyph glyph-name="uniE00F" unicode="&#xe00f;" 
d="M24 -32h464q10 0 17 7t7 17v464q0 10 -7 17t-17 7h-464q-10 0 -17 -7t-7 -17v-464q0 -10 7 -17t17 -7zM16 456q0 3 2.5 5.5t5.5 2.5h464q3 0 5.5 -2.5t2.5 -5.5v-464q0 -3 -2.5 -5.5t-5.5 -2.5h-464q-3 0 -5.5 2.5t-2.5 5.5v464zM328 280q13 0 22.5 9.5t9.5 22.5
t-9.5 22.5t-22.5 9.5t-22.5 -9.5t-9.5 -22.5t9.5 -22.5t22.5 -9.5zM328 328q7 0 11.5 -4.5t4.5 -11.5t-4.5 -11.5t-11.5 -4.5t-11.5 4.5t-4.5 11.5t4.5 11.5t11.5 4.5zM72 80h368q3 0 5.5 2.5t2.5 5.5v320q0 3 -2.5 5.5t-5.5 2.5h-368q-3 0 -5.5 -2.5t-2.5 -5.5v-320
q0 -3 2.5 -5.5t5.5 -2.5zM80 96v90l0.5 0.5l0.5 0.5l82 82q3 3 7.5 3t7.5 -3l121 -121q1 -1 2.5 -1.5t2.5 -0.5q2 0 3.5 0.5t2.5 1.5l62 59q1 2 3 2.5t5 0.5q2 0 4 -0.5t3 -2.5l45 -49v0v0v-62h-352v0zM432 400v-218l-33 36q-4 4 -9 6t-10 2v0v0q-6 0 -11 -2t-8 -5l-56 -54
l-115 115q-8 8 -19.5 8t-18.5 -8l-72 -72v192h352v0z" />
    <glyph glyph-name="uniE010" unicode="&#xe010;" horiz-adv-x="528" 
d="M24 32h416q10 0 17 7t7 17v400q0 10 -7 17t-17 7h-416q-10 0 -17 -7t-7 -17v-400q0 -10 7 -17t17 -7zM16 456q0 3 2.5 5.5t5.5 2.5h416q3 0 5.5 -2.5t2.5 -5.5v-400q0 -3 -2.5 -5.5t-5.5 -2.5h-416q-3 0 -5.5 2.5t-2.5 5.5v400zM288 304q13 0 22.5 9.5t9.5 22.5
t-9.5 22.5t-22.5 9.5t-22.5 -9.5t-9.5 -22.5t9.5 -22.5t22.5 -9.5zM288 352q7 0 11.5 -4.5t4.5 -11.5t-4.5 -11.5t-11.5 -4.5t-11.5 4.5t-4.5 11.5t4.5 11.5t11.5 4.5zM56 112h352q3 0 5.5 2.5t2.5 5.5v304q0 3 -2.5 5.5t-5.5 2.5h-352q-3 0 -5.5 -2.5t-2.5 -5.5v-304
q0 -3 2.5 -5.5t5.5 -2.5zM64 128v74l0.5 0.5l0.5 0.5l82 82q3 3 7.5 3t7.5 -3l121 -121q1 -1 2.5 -1.5t2.5 -0.5q2 0 3.5 0.5t2.5 1.5l62 59q1 2 3 2.5t5 0.5q2 0 4 -0.5t3 -2.5l29 -32v-63h-336v0zM400 416v-201l-17 19q-4 4 -9 6t-10 2v0v0q-6 0 -11 -2t-8 -6l-56 -53
l-115 115q-8 8 -19.5 8t-18.5 -8l-72 -72v192h336zM72 15q-3 0 -5.5 -2.5t-2.5 -5.5v-15q0 -10 7 -17t17 -7h416q10 0 17 7t7 17v416q0 10 -7 17t-17 7h-15q-3 0 -5.5 -2.5t-2.5 -5.5t2.5 -5.5t5.5 -2.5h15q3 0 5.5 -2.5t2.5 -5.5v-416q0 -3 -2.5 -5.5t-5.5 -2.5h-416
q-3 0 -5.5 2.5t-2.5 5.5v15q0 3 -2.5 5.5t-5.5 2.5z" />
    <glyph glyph-name="uniE011" unicode="&#xe011;" horiz-adv-x="592" 
d="M120 480h-96q-10 0 -17 -7t-7 -17v-464q0 -10 7 -17t17 -7h544q10 0 17 7t7 17v464q0 10 -7 17t-17 7h-448zM16 -8v464q0 4 2 6t6 2h88v-480h-88q-4 0 -6 2t-2 6zM128 -16v480h336v-480h-336zM576 456v-464q0 -4 -2 -6t-6 -2h-88v480h88q4 0 6 -2t2 -6zM236 319
q-1 1 -3.5 1t-4.5 -1t-3 -3t-1 -4v-192q0 -2 1 -4t3 -3q1 -1 2 -1h2t2 0.5t2 0.5l144 96q2 1 3 3t1 4t-1 4t-3 3l-144 96v0zM240 135v162l122 -81zM80 352h-32q-3 0 -5.5 -2.5t-2.5 -5.5t2.5 -5.5t5.5 -2.5h32q3 0 5.5 2.5t2.5 5.5t-2.5 5.5t-5.5 2.5zM48 400h32
q3 0 5.5 2.5t2.5 5.5t-2.5 5.5t-5.5 2.5h-32q-3 0 -5.5 -2.5t-2.5 -5.5t2.5 -5.5t5.5 -2.5zM80 288h-32q-3 0 -5.5 -2.5t-2.5 -5.5t2.5 -5.5t5.5 -2.5h32q3 0 5.5 2.5t2.5 5.5t-2.5 5.5t-5.5 2.5zM80 224h-32q-3 0 -5.5 -2.5t-2.5 -5.5t2.5 -5.5t5.5 -2.5h32q3 0 5.5 2.5
t2.5 5.5t-2.5 5.5t-5.5 2.5zM80 160h-32q-3 0 -5.5 -2.5t-2.5 -5.5t2.5 -5.5t5.5 -2.5h32q3 0 5.5 2.5t2.5 5.5t-2.5 5.5t-5.5 2.5zM80 96h-32q-3 0 -5.5 -2.5t-2.5 -5.5t2.5 -5.5t5.5 -2.5h32q3 0 5.5 2.5t2.5 5.5t-2.5 5.5t-5.5 2.5zM80 32h-32q-3 0 -5.5 -2.5t-2.5 -5.5
t2.5 -5.5t5.5 -2.5h32q3 0 5.5 2.5t2.5 5.5t-2.5 5.5t-5.5 2.5zM512 336h32q3 0 5.5 2.5t2.5 5.5t-2.5 5.5t-5.5 2.5h-32q-3 0 -5.5 -2.5t-2.5 -5.5t2.5 -5.5t5.5 -2.5zM512 400h32q3 0 5.5 2.5t2.5 5.5t-2.5 5.5t-5.5 2.5h-32q-3 0 -5.5 -2.5t-2.5 -5.5t2.5 -5.5t5.5 -2.5z
M512 272h32q3 0 5.5 2.5t2.5 5.5t-2.5 5.5t-5.5 2.5h-32q-3 0 -5.5 -2.5t-2.5 -5.5t2.5 -5.5t5.5 -2.5zM512 208h32q3 0 5.5 2.5t2.5 5.5t-2.5 5.5t-5.5 2.5h-32q-3 0 -5.5 -2.5t-2.5 -5.5t2.5 -5.5t5.5 -2.5zM512 144h32q3 0 5.5 2.5t2.5 5.5t-2.5 5.5t-5.5 2.5h-32
q-3 0 -5.5 -2.5t-2.5 -5.5t2.5 -5.5t5.5 -2.5zM512 80h32q3 0 5.5 2.5t2.5 5.5t-2.5 5.5t-5.5 2.5h-32q-3 0 -5.5 -2.5t-2.5 -5.5t2.5 -5.5t5.5 -2.5zM544 32h-32q-3 0 -5.5 -2.5t-2.5 -5.5t2.5 -5.5t5.5 -2.5h32q3 0 5.5 2.5t2.5 5.5t-2.5 5.5t-5.5 2.5z" />
    <glyph glyph-name="uniE012" unicode="&#xe012;" horiz-adv-x="672" 
d="M632 384h-120q-23 0 -27.5 15t-4.5 17v16q0 15 -16.5 31.5t-47.5 16.5h-160q-35 0 -49.5 -17t-14.5 -31v-16q0 -1 -4 -16.5t-28 -15.5h-120q-17 0 -28.5 -11.5t-11.5 -28.5v-288q0 -17 11.5 -28.5t28.5 -11.5h96q3 0 5.5 2.5t2.5 5.5t-2.5 5.5t-5.5 2.5h-96q-10 0 -17 7
t-7 17v200h128q-8 -18 -12 -38.5t-4 -41.5q0 -43 16.5 -81t44.5 -66t66 -44.5t81 -16.5t81 16.5t66 44.5t44.5 66t16.5 81q0 21 -4 41.5t-12 38.5h128v-200q0 -10 -7 -17t-17 -7h-112q-3 0 -5.5 -2.5t-2.5 -5.5t2.5 -5.5t5.5 -2.5h112q17 0 28.5 11.5t11.5 28.5v288
q0 17 -11.5 28.5t-28.5 11.5zM336 -16q-79 0 -135.5 56.5t-56.5 135.5t56.5 135.5t135.5 56.5t135.5 -56.5t56.5 -135.5t-56.5 -135.5t-135.5 -56.5zM524 272h-2t-1 -1q-26 50 -75.5 81.5t-109.5 31.5t-109.5 -31.5t-75.5 -81.5q0 1 -1 1h-2h-132v72q0 10 7 17t17 7h120
q28 0 38 17.5t10 30.5v16q0 10 11 21t37 11h160q25 0 36.5 -12t11.5 -20v-16q0 -12 10 -30t38 -18h120q10 0 17 -7t7 -17v-72h-132zM152 400q3 0 5.5 2.5t2.5 5.5v16q0 10 -7 17t-17 7h-64q-10 0 -17 -7t-7 -17v-16q0 -3 2.5 -5.5t5.5 -2.5t5.5 2.5t2.5 5.5v16q0 3 2.5 5.5
t5.5 2.5h64q3 0 5.5 -2.5t2.5 -5.5v-16q0 -3 2.5 -5.5t5.5 -2.5zM336 320q-60 0 -102 -42t-42 -102t42 -102t102 -42t102 42t42 102t-42 102t-102 42zM336 48q-53 0 -90.5 37.5t-37.5 90.5t37.5 90.5t90.5 37.5t90.5 -37.5t37.5 -90.5t-37.5 -90.5t-90.5 -37.5z" />
    <glyph glyph-name="uniE013" unicode="&#xe013;" horiz-adv-x="672" 
d="M648 320h-40v56q0 10 -7 17t-17 7h-32q-3 0 -5.5 -2.5t-2.5 -5.5t2.5 -5.5t5.5 -2.5h32q3 0 5.5 -2.5t2.5 -5.5v-56h-64v152q0 3 -2.5 5.5t-5.5 2.5h-368q-3 0 -5.5 -2.5t-2.5 -5.5v-152h-64v56q0 3 2.5 5.5t5.5 2.5h32q3 0 5.5 2.5t2.5 5.5t-2.5 5.5t-5.5 2.5h-32
q-10 0 -17 -7t-7 -17v-56h-40q-10 0 -17 -7t-7 -17v-224q0 -10 7 -17t17 -7h96q3 0 5.5 2.5t2.5 5.5t-2.5 5.5t-5.5 2.5h-96q-3 0 -5.5 2.5t-2.5 5.5v56h640v-56q0 -3 -2.5 -5.5t-5.5 -2.5h-96q-3 0 -5.5 -2.5t-2.5 -5.5t2.5 -5.5t5.5 -2.5h96q10 0 17 7t7 17v224
q0 10 -7 17t-17 7zM160 464h352v-144h-352v144zM16 144v152q0 3 2.5 5.5t5.5 2.5h624q3 0 5.5 -2.5t2.5 -5.5v-152h-640zM520 112q-3 0 -5.5 -2.5t-2.5 -5.5v-120h-352v120q0 3 -2.5 5.5t-5.5 2.5t-5.5 -2.5t-2.5 -5.5v-128q0 -3 2.5 -5.5t5.5 -2.5h368q3 0 5.5 2.5t2.5 5.5
v128q0 3 -2.5 5.5t-5.5 2.5zM592 192q0 -7 4.5 -11.5t11.5 -4.5t11.5 4.5t4.5 11.5t-4.5 11.5t-11.5 4.5t-11.5 -4.5t-4.5 -11.5zM528 192q0 -7 4.5 -11.5t11.5 -4.5t11.5 4.5t4.5 11.5t-4.5 11.5t-11.5 4.5t-11.5 -4.5t-4.5 -11.5z" />
    <glyph glyph-name="uniE014" unicode="&#xe014;" horiz-adv-x="672" 
d="M664 208q-3 0 -5.5 -2.5t-2.5 -5.5v-208q0 -3 -2.5 -5.5t-5.5 -2.5h-624q-3 0 -5.5 2.5t-2.5 5.5v208q0 3 -2.5 5.5t-5.5 2.5t-5.5 -2.5t-2.5 -5.5v-208q0 -10 7 -17t17 -7h624q10 0 17 7t7 17v208q0 3 -2.5 5.5t-5.5 2.5zM648 368h-624q-10 0 -17 -7t-7 -17v-96
q0 -3 2.5 -5.5t5.5 -2.5h216v-56q0 -10 7 -17t17 -7h176q10 0 17 7t7 17v56h216q3 0 5.5 2.5t2.5 5.5v96q0 10 -7 17t-17 7zM432 184q0 -3 -2.5 -5.5t-5.5 -2.5h-176q-3 0 -5.5 2.5t-2.5 5.5v56h192v-56zM656 256h-640v88q0 3 2.5 5.5t5.5 2.5h624q3 0 5.5 -2.5t2.5 -5.5
v-88zM248 480q-10 0 -17 -7t-7 -17v-64q0 -3 2.5 -5.5t5.5 -2.5t5.5 2.5t2.5 5.5v64q0 3 2.5 5.5t5.5 2.5h176q3 0 5.5 -2.5t2.5 -5.5v-64q0 -3 2.5 -5.5t5.5 -2.5t5.5 2.5t2.5 5.5v64q0 10 -7 17t-17 7h-176z" />
    <glyph glyph-name="uniE015" unicode="&#xe015;" horiz-adv-x="608" 
d="M600 192q-3 0 -5.5 -2.5t-2.5 -5.5v-192q0 -3 -2.5 -5.5t-5.5 -2.5h-560q-3 0 -5.5 2.5t-2.5 5.5v192q0 3 -2.5 5.5t-5.5 2.5t-5.5 -2.5t-2.5 -5.5v-192q0 -10 7 -17t17 -7h560q10 0 17 7t7 17v192q0 3 -2.5 5.5t-5.5 2.5zM408 400q3 0 5.5 2.5t2.5 5.5v48q0 10 -7 17
t-17 7h-176q-10 0 -17 -7t-7 -17v-48q0 -3 2.5 -5.5t5.5 -2.5t5.5 2.5t2.5 5.5v48q0 3 2.5 5.5t5.5 2.5h176q3 0 5.5 -2.5t2.5 -5.5v-48q0 -3 2.5 -5.5t5.5 -2.5zM584 368h-560q-10 0 -17 -7t-7 -17v-79q0 -17 26 -35.5t69 -33.5t98 -25t113 -10q57 0 111.5 10t97 25
t68 33.5t25.5 35.5v79q0 10 -7 17t-17 7zM592 265q0 -11 -23.5 -26t-63 -29t-91 -23.5t-108.5 -9.5t-109.5 9.5t-92.5 23.5t-64 29t-24 26v79q0 3 2.5 5.5t5.5 2.5h560q3 0 5.5 -2.5t2.5 -5.5v-79zM306 112q11 0 23 0.5t24 1.5q3 0 5 2.5t2 5.5q0 4 -2.5 6t-6.5 2
q-24 -2 -47 -2t-47 2q-4 0 -6.5 -2t-2.5 -5t2 -6t5 -3q13 -1 26 -1.5t25 -0.5z" />
    <glyph glyph-name="uniE016" unicode="&#xe016;" horiz-adv-x="608" 
d="M520 360q3 0 5.5 2.5t2.5 5.5v27q0 10 -7.5 18t-18.5 8h-43l-10 29q-1 3 -4 4.5t-6 0.5l-233 -71q-3 -1 -4.5 -4t-0.5 -6q1 -2 3 -4t5 -2l0.5 0.5t1.5 0.5l225 68l22 -63q1 -3 4 -4.5t6 -0.5t4.5 4t0.5 6l-9 26h38q4 0 7 -3t3 -7v-27q0 -3 2.5 -5.5t5.5 -2.5zM584 240
q-3 0 -5.5 -2.5t-2.5 -5.5t2.5 -5.5t5.5 -2.5q4 0 6 -2t2 -6v-96q0 -4 -2 -6t-6 -2h-128q-4 0 -6 2t-2 6v80q0 4 2 6t6 2h96q3 0 5.5 2.5t2.5 5.5v96q0 11 -6.5 17.5t-17.5 6.5h-488q-15 0 -23.5 8.5t-8.5 23.5t8.5 23.5t23.5 8.5h81l-48 -16q-3 -1 -4.5 -4t-0.5 -6t3 -4.5
t4 -1.5q1 0 1.5 0.5t1.5 0.5l290 95q3 1 4.5 4t0.5 7q-1 3 -4 4.5t-6 0.5l-194 -64h-0.5h-0.5h-128q-22 0 -35 -13t-13 -35v-352q0 -22 13 -35t35 -13h488q11 0 17.5 6.5t6.5 17.5v80q0 3 -2.5 5.5t-5.5 2.5t-5.5 -2.5t-2.5 -5.5v-80q0 -4 -2 -6t-6 -2h-488q-15 0 -23.5 8.5
t-8.5 23.5v315q6 -5 14 -8t18 -3h488q4 0 6 -2t2 -6v-88h-88q-11 0 -17.5 -6.5t-6.5 -17.5v-80q0 -11 6.5 -17.5t17.5 -6.5h128q11 0 17.5 6.5t6.5 17.5v96q0 11 -6.5 17.5t-17.5 6.5zM496 160q0 -7 4.5 -11.5t11.5 -4.5t11.5 4.5t4.5 11.5t-4.5 11.5t-11.5 4.5t-11.5 -4.5
t-4.5 -11.5z" />
    <glyph glyph-name="uniE017" unicode="&#xe017;" horiz-adv-x="672" 
d="M24 208q-3 0 -5.5 -2.5t-2.5 -5.5v-192q0 -10 7 -17t17 -7h160q3 0 5.5 2.5t2.5 5.5t-2.5 5.5t-5.5 2.5h-160q-3 0 -5.5 2.5t-2.5 5.5v192q0 3 -2.5 5.5t-5.5 2.5zM648 208q-3 0 -5.5 -2.5t-2.5 -5.5v-192q0 -3 -2.5 -5.5t-5.5 -2.5h-336q-3 0 -5.5 -2.5t-2.5 -5.5
t2.5 -5.5t5.5 -2.5h336q10 0 17 7t7 17v192q0 3 -2.5 5.5t-5.5 2.5zM288 456q0 -3 2.5 -5.5t5.5 -2.5h336q3 0 5.5 -2.5t2.5 -5.5v-143q0 -4 2.5 -6t5.5 -2t5.5 2t2.5 6v143q0 10 -7 17t-17 7h-336q-3 0 -5.5 -2.5t-2.5 -5.5zM40 464q-10 0 -17 -7t-7 -17v-143q0 -4 2.5 -6
t5.5 -2t5.5 2t2.5 6v143q0 3 2.5 5.5t5.5 2.5h160q3 0 5.5 2.5t2.5 5.5t-2.5 5.5t-5.5 2.5h-160zM664 257h-326q4 2 8 4.5t7 5.5q18 18 18 43.5t-18 43.5q-17 18 -43.5 18t-43.5 -18q-3 -2 -5.5 -6t-4.5 -9v133q0 3 -2.5 5.5t-5.5 2.5t-5.5 -2.5t-2.5 -5.5v-212
q-20 9 -49 24.5t-36 30.5q-5 9 -5.5 20t2.5 21q4 10 11 18t16 13q3 1 4 4.5t0 6.5t-4.5 4t-6.5 -1q-12 -6 -21 -16.5t-14 -23.5q-4 -13 -3.5 -27t7.5 -26q7 -15 27.5 -28.5t40.5 -22.5h-201q-3 0 -5.5 -2.5t-2.5 -5.5q0 -4 2.5 -6t5.5 -2h150q-5 -2 -9 -4.5t-7 -5.5
q-18 -18 -18 -44t18 -44q9 -9 20.5 -13.5t23.5 -4.5t23.5 4.5t20.5 13.5q3 3 5.5 7t4.5 9v-183q0 -3 2.5 -5.5t5.5 -2.5t5.5 2.5t2.5 5.5v261q20 -9 48.5 -24t36.5 -30q4 -10 5 -20.5t-3 -20.5q-3 -11 -10 -19t-17 -12q-3 -2 -4 -5t1 -6q1 -2 2.5 -3.5t4.5 -1.5q1 0 1.5 0.5
t1.5 0.5q13 6 22 16.5t13 24.5q5 13 4 26.5t-7 26.5q-7 15 -27.5 28t-40.5 23h377q3 0 5.5 2t2.5 6q0 3 -2.5 5.5t-5.5 2.5v0zM277 343q6 7 14.5 10t18.5 3q9 0 17.5 -3t14.5 -10q13 -13 13 -32.5t-13 -32.5q-10 -10 -38.5 -15t-47.5 -6q2 23 7 50t14 36zM219 154
q-14 -13 -33 -13t-33 13q-13 14 -13 33t13 33q11 10 39 14.5t47 5.5q-1 -22 -6 -49t-14 -37z" />
    <glyph glyph-name="uniE018" unicode="&#xe018;" horiz-adv-x="576" 
d="M416 312v-320q0 -2 0.5 -4t0.5 -4h-50q0 2 0.5 4t0.5 4v464q0 10 -7 17t-17 7h-112q-10 0 -17 -7t-7 -17v-464q0 -2 0.5 -4t0.5 -4h-50q0 2 0.5 4t0.5 4v176q0 10 -7 17t-17 7h-112q-10 0 -17 -7t-7 -17v-176q0 -10 7 -17t17 -7h528q10 0 17 7t7 17v320q0 10 -7 17t-17 7
h-112q-10 0 -17 -7t-7 -17zM80 -16h-56q-3 0 -5.5 2.5t-2.5 5.5v176q0 3 2.5 5.5t5.5 2.5h112q3 0 5.5 -2.5t2.5 -5.5v-176q0 -3 -2.5 -5.5t-5.5 -2.5h-56zM232 -16q-3 0 -5.5 2.5t-2.5 5.5v464q0 3 2.5 5.5t5.5 2.5h112q3 0 5.5 -2.5t2.5 -5.5v-464q0 -3 -2.5 -5.5
t-5.5 -2.5h-112zM560 312v-320q0 -3 -2.5 -5.5t-5.5 -2.5h-112q-3 0 -5.5 2.5t-2.5 5.5v320q0 3 2.5 5.5t5.5 2.5h112q3 0 5.5 -2.5t2.5 -5.5z" />
    <glyph glyph-name="uniE019" unicode="&#xe019;" horiz-adv-x="496" 
d="M456 304q3 0 5.5 2.5t2.5 5.5t-2.5 5.5t-5.5 2.5h-120v120q0 3 -2.5 5.5t-5.5 2.5t-5.5 -2.5t-2.5 -5.5v-120h-144v120q0 3 -2.5 5.5t-5.5 2.5t-5.5 -2.5t-2.5 -5.5v-120h-120q-3 0 -5.5 -2.5t-2.5 -5.5t2.5 -5.5t5.5 -2.5h120v-144h-120q-3 0 -5.5 -2.5t-2.5 -5.5
t2.5 -5.5t5.5 -2.5h120v-136q0 -3 2.5 -5.5t5.5 -2.5t5.5 2.5t2.5 5.5v136h144v-136q0 -3 2.5 -5.5t5.5 -2.5t5.5 2.5t2.5 5.5v136h120q3 0 5.5 2.5t2.5 5.5t-2.5 5.5t-5.5 2.5h-120v144h120zM320 160h-144v144h144v-144zM496 -8v464q0 10 -7 17t-17 7h-448q-10 0 -17 -7
t-7 -17v-464q0 -10 7 -17t17 -7h448q10 0 17 7t7 17zM16 -8v464q0 3 2.5 5.5t5.5 2.5h448q3 0 5.5 -2.5t2.5 -5.5v-464q0 -3 -2.5 -5.5t-5.5 -2.5h-448q-3 0 -5.5 2.5t-2.5 5.5z" />
    <glyph glyph-name="uniE01A" unicode="&#xe01a;" 
d="M512 -8v464q0 10 -7 17t-17 7h-464q-10 0 -17 -7t-7 -17v-144q0 -3 2.5 -5.5t5.5 -2.5t5.5 2.5t2.5 5.5v144q0 3 2.5 5.5t5.5 2.5h464q3 0 5.5 -2.5t2.5 -5.5v-464q0 -3 -2.5 -5.5t-5.5 -2.5h-144q-3 0 -5.5 -2.5t-2.5 -5.5t2.5 -5.5t5.5 -2.5h144q10 0 17 7t7 17z
M24 272q-10 0 -17 -7t-7 -17v-256q0 -10 7 -17t17 -7h256q10 0 17 7t7 17v269l112 112v-109q0 -3 2.5 -5.5t5.5 -2.5t5.5 2.5t2.5 5.5v128q0 3 -2.5 5.5t-5.5 2.5h-128q-3 0 -5.5 -2.5t-2.5 -5.5t2.5 -5.5t5.5 -2.5h109l-112 -112h-269zM288 -8q0 -3 -2.5 -5.5t-5.5 -2.5
h-256q-3 0 -5.5 2.5t-2.5 5.5v256q0 3 2.5 5.5t5.5 2.5h264v-264z" />
    <glyph glyph-name="uniE01B" unicode="&#xe01b;" horiz-adv-x="672" 
d="M136 480h-112q-10 0 -17 -7t-7 -17v-96q0 -3 2.5 -5.5t5.5 -2.5t5.5 2.5t2.5 5.5v96q0 3 2.5 5.5t5.5 2.5h112q3 0 5.5 2.5t2.5 5.5t-2.5 5.5t-5.5 2.5zM648 480h-112q-3 0 -5.5 -2.5t-2.5 -5.5t2.5 -5.5t5.5 -2.5h112q3 0 5.5 -2.5t2.5 -5.5v-96q0 -3 2.5 -5.5t5.5 -2.5
t5.5 2.5t2.5 5.5v96q0 10 -7 17t-17 7zM664 96q-3 0 -5.5 -2.5t-2.5 -5.5v-96q0 -3 -2.5 -5.5t-5.5 -2.5h-112q-3 0 -5.5 -2.5t-2.5 -5.5t2.5 -5.5t5.5 -2.5h112q10 0 17 7t7 17v96q0 3 -2.5 5.5t-5.5 2.5zM8 96q-3 0 -5.5 -2.5t-2.5 -5.5v-96q0 -10 7 -17t17 -7h112
q3 0 5.5 2.5t2.5 5.5t-2.5 5.5t-5.5 2.5h-112q-3 0 -5.5 2.5t-2.5 5.5v96q0 3 -2.5 5.5t-5.5 2.5zM376 176q3 0 5.5 2.5t2.5 5.5v80q0 3 -2.5 5.5t-5.5 2.5h-80q-3 0 -5.5 -2.5t-2.5 -5.5v-80q0 -3 2.5 -5.5t5.5 -2.5h80zM304 256h64v-64h-64v64z" />
    <glyph glyph-name="uniE01C" unicode="&#xe01c;" 
d="M24 -32h464q10 0 17 7t7 17v464q0 10 -7 17t-17 7h-464q-10 0 -17 -7t-7 -17v-464q0 -10 7 -17t17 -7zM16 456q0 3 2.5 5.5t5.5 2.5h464q3 0 5.5 -2.5t2.5 -5.5v-464q0 -3 -2.5 -5.5t-5.5 -2.5h-464q-3 0 -5.5 2.5t-2.5 5.5v464zM64 24q1 0 1.5 0.5l0.5 0.5l160 47
q1 1 2 1.5t2 0.5l161 164l0.5 0.5l0.5 0.5l58 58q8 8 8 18t-8 18l-83 83q-8 8 -18 8t-18 -8l-59 -59l-1 -1v-1l-162 -162q-1 0 -1.5 -1t-0.5 -2l-51 -155q0 -2 0.5 -4.5t1.5 -3.5t2.5 -2t3.5 -1v0zM278 340l16 -17l-136 -137l-28 6zM168 173l138 139l39 -39l-140 -137h-37
v37v0zM374 243l-148 -149l-9 32l139 135l18 -18v0zM120 178l32 -7v-43q0 -3 2.5 -5.5t5.5 -2.5h42l10 -35l-136 -41l44 134v0zM343 405q2 3 6 3t6 -3l84 -84q3 -2 3 -6t-3 -6l-54 -54l-96 96z" />
    <glyph glyph-name="uniE01D" unicode="&#xe01d;" horiz-adv-x="528" 
d="M496 480h-464q-10 0 -21 -11t-11 -21v-448q0 -10 11 -21t21 -11h464q10 0 21 11t11 21v448q0 10 -11 21t-21 11zM512 0q0 -3 -6.5 -9.5t-9.5 -6.5h-464q-3 0 -9.5 6.5t-6.5 9.5v448q0 3 6.5 9.5t9.5 6.5h464q3 0 9.5 -6.5t6.5 -9.5v-448zM264 392q-13 0 -22.5 -9.5
t-9.5 -22.5t9.5 -22.5t22.5 -9.5t22.5 9.5t9.5 22.5t-9.5 22.5t-22.5 9.5zM264 344q-7 0 -11.5 4.5t-4.5 11.5t4.5 11.5t11.5 4.5t11.5 -4.5t4.5 -11.5t-4.5 -11.5t-11.5 -4.5zM392 136q-13 0 -22.5 -9.5t-9.5 -22.5t9.5 -22.5t22.5 -9.5t22.5 9.5t9.5 22.5t-9.5 22.5
t-22.5 9.5zM392 88q-7 0 -11.5 4.5t-4.5 11.5t4.5 11.5t11.5 4.5t11.5 -4.5t4.5 -11.5t-4.5 -11.5t-11.5 -4.5zM136 216q-13 0 -22.5 -9.5t-9.5 -22.5t9.5 -22.5t22.5 -9.5t22.5 9.5t9.5 22.5t-9.5 22.5t-22.5 9.5zM136 168q-7 0 -11.5 4.5t-4.5 11.5t4.5 11.5t11.5 4.5
t11.5 -4.5t4.5 -11.5t-4.5 -11.5t-11.5 -4.5zM136 240q3 0 5.5 2.5t2.5 5.5v144q0 3 -2.5 5.5t-5.5 2.5t-5.5 -2.5t-2.5 -5.5v-144q0 -3 2.5 -5.5t5.5 -2.5zM136 128q-3 0 -5.5 -2.5t-2.5 -5.5v-48q0 -3 2.5 -5.5t5.5 -2.5t5.5 2.5t2.5 5.5v48q0 3 -2.5 5.5t-5.5 2.5z
M264 304q-3 0 -5.5 -2.5t-2.5 -5.5v-224q0 -3 2.5 -5.5t5.5 -2.5t5.5 2.5t2.5 5.5v224q0 3 -2.5 5.5t-5.5 2.5zM392 160q3 0 5.5 2.5t2.5 5.5v224q0 3 -2.5 5.5t-5.5 2.5t-5.5 -2.5t-2.5 -5.5v-224q0 -3 2.5 -5.5t5.5 -2.5z" />
    <glyph glyph-name="uniE01E" unicode="&#xe01e;" horiz-adv-x="448" 
d="M24 336q-3 0 -5.5 -2.5t-2.5 -5.5v-335q0 -8 3 -13t6 -7q4 -3 8.5 -4t8.5 -1q2 0 4.5 0.5t3.5 0.5q18 6 44 25.5t52 43.5l48 46l32 32l30.5 -32.5t47 -46t51 -43t43.5 -25.5q4 -1 11.5 -0.5t13.5 4.5q3 2 6 7t3 13v335q0 3 -2.5 5.5t-5.5 2.5t-5.5 -2.5t-2.5 -5.5v-335
q0 -3 -1 -4.5t-2 -2.5q-2 -2 -5 -2t-6 1q-18 5 -46.5 29t-56 50t-47.5 47.5l-20 21.5q-1 2 -2.5 2.5t-3.5 0.5q-1 0 -3 -0.5t-3 -2.5l-20.5 -21.5t-48.5 -47.5t-57.5 -50t-47.5 -29q-3 -1 -6 -1t-5 2q-1 1 -2 2.5t-1 4.5v335q0 3 -2.5 5.5t-5.5 2.5v0zM448 376v80
q0 10 -7 17t-17 7h-400q-10 0 -17 -7t-7 -17v-80q0 -3 2.5 -5.5t5.5 -2.5h432q3 0 5.5 2.5t2.5 5.5zM432 384h-416v72q0 3 2.5 5.5t5.5 2.5h400q3 0 5.5 -2.5t2.5 -5.5v-72z" />
    <glyph glyph-name="uniE01F" unicode="&#xe01f;" horiz-adv-x="336" 
d="M336 472q0 3 -2 5.5t-6 2.5h-320q-4 0 -6 -2.5t-2 -5.5t2 -5.5t6 -2.5h320q4 0 6 2.5t2 5.5v0zM320 382v58q0 3 -2.5 5.5t-5.5 2.5h-287q-3 0 -5.5 -2.5t-2.5 -5.5v-58q0 -60 35 -100t62 -58q-31 -21 -64.5 -60.5t-33.5 -97.5v-58q0 -3 2.5 -5.5t5.5 -2.5h288
q3 0 5.5 2.5t2.5 5.5v57q0 60 -35.5 100t-62.5 59q31 21 64.5 60.5t33.5 97.5zM168 93l77 -77h-154zM204 231q-2 -1 -3 -3t-1 -4t1 -4t3 -3q22 -14 61 -53t39 -99v-49h-37v0v1l-91 91v12q0 3 -2.5 5.5t-5.5 2.5t-5.5 -2.5t-2.5 -5.5v-12l-91 -91v-1v0h-37v50q0 57 36 95
t64 56q2 1 3 3t1 4t-1 4t-3 3q-22 14 -61 52.5t-39 98.5v50h272v-50q0 -57 -36 -95t-64 -56v0zM249 336h-157q-3 0 -4.5 -1t-2.5 -3q-1 -1 -1 -3.5t1 -4.5q14 -24 34 -40.5t42 -32.5l2 -2q1 0 2.5 -0.5t2.5 -0.5t2.5 0.5t2.5 0.5q3 3 6 5l6 4q20 14 39 29.5t32 36.5
q1 2 1 4.5t-1 3.5q-1 2 -3 3t-4 1v0zM176 272q-2 -2 -4 -3.5t-4 -2.5q-18 13 -33.5 25.5t-28.5 28.5h128q-12 -14 -27 -25.5t-31 -22.5zM8 -32h320q4 0 6 2.5t2 5.5t-2 5.5t-6 2.5h-320q-4 0 -6 -2.5t-2 -5.5t2 -5.5t6 -2.5v0zM168 176q-3 0 -5.5 -2.5t-2.5 -5.5v-16
q0 -3 2.5 -5.5t5.5 -2.5t5.5 2.5t2.5 5.5v16q0 3 -2.5 5.5t-5.5 2.5zM168 224q-3 0 -5.5 -2.5t-2.5 -5.5v-16q0 -3 2.5 -5.5t5.5 -2.5t5.5 2.5t2.5 5.5v16q0 3 -2.5 5.5t-5.5 2.5z" />
    <glyph glyph-name="uniE020" unicode="&#xe020;" horiz-adv-x="448" 
d="M224 480q-66 0 -113 -47t-47 -113v-48h-24q-17 0 -28.5 -11.5t-11.5 -28.5v-224q0 -17 11.5 -28.5t28.5 -11.5h368q17 0 28.5 11.5t11.5 28.5v224q0 17 -11.5 28.5t-28.5 11.5h-24v48q0 66 -47 113t-113 47zM80 320q0 60 42 102t102 42t102 -42t42 -102v-48h-48v48
q0 40 -28 68t-68 28t-68 -28t-28 -68v-48h-48v48zM304 272h-160v48q0 33 23.5 56.5t56.5 23.5t56.5 -23.5t23.5 -56.5v-48zM197 144l-80 -80h-74l80 80h74zM293 144l-80 -80h-74l80 80h74zM389 144l-80 -80h-74l80 80h74zM432 144v-80h-101l80 80h21zM21 64h-5v80h85
l-80 -80v0zM408 -16h-368q-10 0 -17 7t-7 17v40h416v-40q0 -10 -7 -17t-17 -7zM432 232v-72h-416v72q0 10 7 17t17 7h368q10 0 17 -7t7 -17z" />
    <glyph glyph-name="uniE021" unicode="&#xe021;" horiz-adv-x="640" 
d="M632 480q-3 0 -5.5 -2.5t-2.5 -5.5v-496q0 -3 2.5 -5.5t5.5 -2.5t5.5 2.5t2.5 5.5v496q0 3 -2.5 5.5t-5.5 2.5zM603 461q-2 1 -4 0.5t-4 -1.5l-9 -7q-36 -29 -102 -65t-188 -36h-222q-17 0 -29.5 -12.5t-12.5 -30.5v-171q0 -17 12.5 -29.5t29.5 -12.5h54q1 -13 8.5 -41
t31.5 -51q17 -18 41.5 -27t54.5 -9q3 0 5.5 2.5t2.5 5.5t-2.5 5.5t-5.5 2.5q-27 0 -48.5 8t-36.5 23q-20 20 -26.5 44.5t-8.5 36.5h48q1 -8 5.5 -21t15.5 -24q9 -9 22 -14t29 -5q3 0 5.5 2.5t2.5 5.5t-2.5 5.5t-5.5 2.5q-13 0 -23 3.5t-17 10.5q-8 8 -11 17.5t-4 16.5h86
q122 0 189 -36.5t103 -64.5l8 -7q1 -1 2.5 -1.5t2.5 -0.5t2 0.5l1 0.5q3 1 4 3t1 4v460q0 2 -1 4t-4 3v0zM48 138v171q0 11 7.5 19t18.5 8h54v-224h-54q-11 0 -18.5 7.5t-7.5 18.5v0zM592 11q-38 30 -106 65.5t-191 35.5h-93h-1h-1v0v0h-1.5h-1.5h-53v224h152q123 0 191 36
t105 65v-426zM8 130q3 0 5.5 2.5t2.5 5.5v172q0 3 -2.5 5.5t-5.5 2.5t-5.5 -2.5t-2.5 -5.5v-172q0 -3 2.5 -5.5t5.5 -2.5z" />
    <glyph glyph-name="uniE022" unicode="&#xe022;" horiz-adv-x="432" 
d="M216 480q-107 0 -159.5 -41t-54.5 -43q-1 -1 -1.5 -2.5t-0.5 -2.5v-161q0 -51 20.5 -92t49 -71.5t59 -51t50.5 -30.5q3 -2 6 -1t5 4q1 3 0 6t-3 5q-24 12 -54 32.5t-56 49.5t-43.5 66t-17.5 83v158q8 9 56 41.5t136 34.5v-488q0 -3 2.5 -5.5t5.5 -2.5q2 0 3.5 0.5
t2.5 2.5q10 4 44 22t71 50.5t66 79.5t29 109v160q0 1 -0.5 2.5t-1.5 2.5q-2 2 -45.5 37.5t-132.5 44.5q-3 0 -6 -2t-3 -5t2 -5.5t5 -3.5q76 -7 117 -36.5t49 -37.5v-157q0 -54 -24 -95.5t-56 -72t-64 -49t-48 -26.5v483q0 3 -2.5 5.5t-5.5 2.5v0z" />
    <glyph glyph-name="uniE023" unicode="&#xe023;" horiz-adv-x="544" 
d="M408 464q3 0 5.5 2.5t2.5 5.5t-2.5 5.5t-5.5 2.5h-272q-3 0 -5.5 -2.5t-2.5 -5.5t2.5 -5.5t5.5 -2.5h272zM408 448h-304q-39 0 -59.5 -11.5t-28.5 -22.5q-11 -15 -12.5 -33.5t4.5 -39.5q11 -31 40 -64.5t51 -50.5q1 -1 2.5 -1.5t2.5 -0.5q2 0 3.5 1t2.5 2q2 3 2 6t-3 5
q-20 16 -48 47.5t-37 61.5q-6 16 -4.5 31t9.5 26q9 14 28.5 21t46.5 7h24v-152q0 -81 56 -126.5t73 -54.5q-1 -1 -1 -1.5v-1.5v-40q0 -3 2.5 -5.5t5.5 -2.5t5.5 2.5t2.5 5.5v40v1.5t-1 1.5q19 8 82 54t63 127v152h24q27 0 46.5 -7t28.5 -21q8 -11 9.5 -26t-4.5 -31
q-7 -23 -36.5 -58.5t-48.5 -50.5q-3 -2 -3 -5t2 -6q1 -1 2.5 -2t3.5 -1q1 0 2.5 0.5t2.5 1.5q21 16 51.5 53t39.5 62q6 21 4.5 39.5t-12.5 33.5q-8 11 -28.5 22.5t-59.5 11.5h-32zM400 280q0 -73 -60 -116t-76 -51q-15 8 -67.5 51t-52.5 116v152h256v-152zM176 32
q-14 0 -23 -9t-9 -23v-24q0 -3 2.5 -5.5t5.5 -2.5h224q3 0 5.5 2.5t2.5 5.5v23q0 14 -9.5 23.5t-22.5 9.5h-176zM368 -1v-15h-208v16q0 7 4.5 11.5t11.5 4.5h176q7 0 11.5 -5t4.5 -12z" />
    <glyph glyph-name="uniE024" unicode="&#xe024;" horiz-adv-x="448" 
d="M216 464h-176q-3 0 -5.5 -2.5t-2.5 -5.5v-240q0 -3 2.5 -5.5t5.5 -2.5h176q3 0 13.5 -3.5t10.5 -20.5q0 -3 2.5 -5.5t5.5 -2.5t5.5 2.5t2.5 5.5v240q0 11 -8.5 25.5t-31.5 14.5zM240 217q-6 4 -12.5 5.5t-11.5 1.5h-168v224h168q17 0 20.5 -11t3.5 -13v-207zM421 144
h-221l-6.5 1t-11.5 6q-3 3 -5 7t-2 10q0 3 -2 5.5t-6 2.5q-3 0 -5.5 -2.5t-2.5 -5.5q0 -9 3 -16.5t8 -12.5q9 -8 18.5 -9.5t11.5 -1.5h34.5h76h76h34.5q5 0 9 2t6 5q4 5 4 10t-1 9q-7 22 -33.5 60l-36.5 52q10 15 36.5 58.5t33.5 65.5q1 4 1 9t-4 10q-2 3 -6 5t-9 2h-140
q-4 0 -6 -2.5t-2 -5.5t2 -5.5t6 -2.5h140h1.5t0.5 -1q1 0 1 -1.5v-2.5q-7 -24 -39 -74.5l-32 -50.5q-2 -2 -2 -5t2 -5l32 -44t39 -67v-2.5t-1 -1.5q0 -1 -0.5 -1h-1.5v0zM16 -24v496q0 3 -2.5 5.5t-5.5 2.5t-5.5 -2.5t-2.5 -5.5v-496q0 -3 2.5 -5.5t5.5 -2.5t5.5 2.5
t2.5 5.5z" />
    <glyph glyph-name="uniE025" unicode="&#xe025;" horiz-adv-x="656" 
d="M148 -31v0v0q1 0 2 -0.5t2 -0.5h1.5h0.5l174 48l174 -48h0.5h1.5t2 0.5t2 0.5v0v0l144 88q2 2 3 4.5t1 4.5l-80 280q-1 2 -2 3.5t-3 1.5q-1 1 -3 1t-4 -1l-79 -45q-3 -1 -4 -4.5t1 -5.5q1 -3 4.5 -4t6.5 0l70 40l76 -264l-129 -79l-30 244q0 3 -3 5t-6 2t-5 -3t-2 -6
l31 -244l-159 43v44q0 3 -2.5 5.5t-5.5 2.5t-5.5 -2.5t-2.5 -5.5v-44l-159 -43l31 244q0 3 -2 6t-5 3t-6 -2t-3 -5l-30 -244l-129 79l76 264l70 -40q3 -1 6 0t5 4q2 2 1 5.5t-4 4.5l-79 45q-2 1 -4 1t-3 -1q-2 0 -3 -1.5t-2 -3.5l-80 -280q0 -2 1 -4.5t3 -4.5l144 -88v0z
M323 106q1 -1 2.5 -1.5t2.5 -0.5t2.5 0.5t2.5 1.5l23 22.5t45 54t43.5 75.5t19.5 86q0 57 -39.5 96.5t-96.5 39.5t-96.5 -39.5t-39.5 -96.5q0 -44 19.5 -85.5t43.5 -75t45 -54.5zM328 464q51 0 85.5 -34.5t34.5 -85.5q0 -37 -15.5 -72.5t-35.5 -65.5t-40 -52t-29 -31
q-9 9 -29 31t-40 52.5t-35.5 66t-15.5 71.5q0 51 34.5 85.5t85.5 34.5zM400 344q0 30 -21 51t-51 21t-51 -21t-21 -51t21 -51t51 -21t51 21t21 51zM328 288q-23 0 -39.5 16.5t-16.5 39.5t16.5 39.5t39.5 16.5t39.5 -16.5t16.5 -39.5t-16.5 -39.5t-39.5 -16.5z" />
    <glyph glyph-name="uniE026" unicode="&#xe026;" horiz-adv-x="560" 
d="M321 417q0 24 -19.5 43.5t-61.5 19.5q-37 0 -59.5 -17t-22.5 -46q0 -16 5 -24.5t10 -13.5q2 -2 3 -3.5t1 -2.5q0 -2 -1 -3.5t-8 -1.5h-98q-28 0 -49 -19t-21 -45v-60q0 -11 6 -17.5t16 -6.5q6 0 10.5 2.5t8.5 5.5q5 4 12 8t19 4q20 0 38 -16.5t18 -47.5q0 -32 -18 -51.5
t-38 -19.5q-11 0 -18 4t-13 9q-4 3 -8.5 6t-10.5 3q-10 0 -16 -6.5t-6 -18.5v-66q0 -26 21.5 -47t48.5 -21h99q11 0 17.5 6.5t6.5 15.5q0 6 -2.5 10t-5.5 8q-4 4 -7.5 9.5t-3.5 17.5q0 21 18 34t47 13q30 0 48 -13t18 -34q0 -12 -3.5 -17.5t-7.5 -9.5q-3 -4 -5.5 -8
t-2.5 -10q0 -10 6.5 -16t17.5 -6h63q26 0 42.5 18t16.5 47v75q0 1 3.5 5t9.5 4q1 0 2.5 -1t3.5 -3q5 -5 13.5 -10t25.5 -5q26 0 48 20t22 58q0 41 -20 60.5t-44 19.5q-16 0 -26 -5.5t-16 -10.5q-3 -2 -5.5 -4t-3.5 -2q-6 0 -9.5 4t-3.5 5v0.5v0.5v57q0 29 -16.5 48t-42.5 19
h-62h-0.5h-0.5q-6 0 -7 1.5t-1 3.5q0 1 1 2.5t3 3.5q4 5 9.5 13.5t5.5 24.5v0zM294 390q-3 -4 -5.5 -8t-2.5 -10t4.5 -12.5t18.5 -7.5h0.5h0.5h63q21 0 32 -16t11 -35v-58v-1v-1q1 -7 9 -15t20 -8q5 0 9.5 3t9.5 6q6 5 13 9t19 4q22 0 35 -17.5t13 -46.5q0 -32 -17.5 -47
t-36.5 -15q-12 0 -18 3.5t-10 7.5q-3 3 -7 5.5t-10 2.5q-12 0 -20 -8t-9 -15v-0.5v-1.5v-75q0 -18 -10.5 -33.5t-32.5 -15.5h-62q-7 0 -8 2.5t-1 3.5q0 2 1 3t3 4q4 5 9.5 13.5t5.5 24.5q0 24 -20 43.5t-62 19.5q-36 0 -58.5 -17.5t-22.5 -45.5q0 -16 5 -24.5t10 -13.5
q2 -3 3 -4t1 -3q0 -1 -1 -3.5t-8 -2.5h-98q-20 0 -37 16.5t-17 35.5v66q0 6 2.5 7.5t3.5 1.5q2 0 4 -2t5 -4q6 -5 15.5 -10.5t26.5 -5.5q25 0 48 24t23 63t-23 59.5t-49 20.5q-16 0 -25.5 -5.5t-15.5 -9.5q-3 -2 -5 -3.5t-4 -1.5q-1 0 -3.5 1t-2.5 8v59q0 21 17.5 34.5
t36.5 13.5h98h0.5h0.5v0q15 1 19.5 7.5t4.5 13.5q0 5 -2.5 9t-5.5 8q-4 4 -7.5 10t-3.5 17q0 21 18 34t48 13q29 0 47 -12.5t18 -34.5q0 -11 -3.5 -17t-7.5 -10v0z" />
    <glyph glyph-name="uniE027" unicode="&#xe027;" horiz-adv-x="672" 
d="M632 256h-592q-2 0 -3.5 -1t-2.5 -2q-1 -2 -1.5 -3.5t-0.5 -3.5l64 -256q1 -4 6 -13t18 -9h432q13 0 18 9t6 13l64 256q0 2 -0.5 3.5t-1.5 3.5q-1 1 -2.5 2t-3.5 1zM560 -6q-2 -7 -4 -8.5t-4 -1.5h-432q-2 0 -4 1t-4 9l-62 246h572l-62 -246v0zM296 32q3 0 5.5 2.5
t2.5 5.5v144q0 3 -2.5 5.5t-5.5 2.5t-5.5 -2.5t-2.5 -5.5v-144q0 -3 2.5 -5.5t5.5 -2.5zM184 32h0.5h0.5q3 0 5 3t2 6l-16 144q0 3 -2.5 5t-6.5 2q-3 0 -5 -3t-2 -6l16 -144q0 -3 2.5 -5t5.5 -2zM392 32q3 0 5.5 2.5t2.5 5.5v144q0 3 -2.5 5.5t-5.5 2.5t-5.5 -2.5t-2.5 -5.5
v-144q0 -3 2.5 -5.5t5.5 -2.5zM487 32h0.5h0.5q3 0 5.5 2t2.5 5l16 144q0 3 -2 6t-5 3q-4 0 -6.5 -2t-2.5 -5l-16 -144q0 -3 2 -6t5 -3v0zM552 288q1 0 2.5 0.5t2.5 1.5q3 2 3 5.5t-2 5.5l-152 176q-2 3 -5.5 3t-5.5 -2q-3 -2 -3 -5.5t2 -5.5l152 -176q1 -2 2.5 -2.5
t3.5 -0.5zM285 478q-2 2 -5.5 2t-5.5 -3l-144 -176q-2 -2 -2 -5.5t3 -5.5q1 -1 2.5 -1.5t2.5 -0.5q2 0 3.5 0.5t2.5 2.5l144 176q2 2 2 5.5t-3 5.5zM664 320h-64q-3 0 -5.5 -2.5t-2.5 -5.5t2.5 -5.5t5.5 -2.5h64q3 0 5.5 2.5t2.5 5.5t-2.5 5.5t-5.5 2.5zM216 304h256
q3 0 5.5 2.5t2.5 5.5t-2.5 5.5t-5.5 2.5h-256q-3 0 -5.5 -2.5t-2.5 -5.5t2.5 -5.5t5.5 -2.5zM8 304h80q3 0 5.5 2.5t2.5 5.5t-2.5 5.5t-5.5 2.5h-80q-3 0 -5.5 -2.5t-2.5 -5.5t2.5 -5.5t5.5 -2.5z" />
    <glyph glyph-name="uniE028" unicode="&#xe028;" horiz-adv-x="608" 
d="M321 473q-7 7 -17 7t-17 -7l-283 -170q-2 -1 -3 -3t-1 -4v-303q0 -10 7.5 -17.5t17.5 -7.5h558q10 0 17.5 7.5t7.5 17.5v303q0 2 -1 4t-3 3zM296 460l0.5 0.5t1.5 0.5q1 2 2.5 2.5t3.5 0.5t3.5 -0.5t2.5 -2.5q1 0 1.5 -0.5l0.5 -0.5l276 -166l-200 -119q-3 -2 -4 -5t1 -6
q1 -2 3 -3t4 -1q1 0 2 0.5t2 0.5l196 117v-284l-271 180q-6 5 -16.5 5t-16.5 -5l-272 -180v284l196 -117q1 0 2 -0.5t2 -0.5q2 0 4 1t3 3q2 3 1 6t-4 5l-200 119l276 166v0zM577 -16h-547l267 177q2 2 7 2t8 -2zM104 272h400q3 0 5.5 2.5t2.5 5.5t-2.5 5.5t-5.5 2.5h-400
q-3 0 -5.5 -2.5t-2.5 -5.5t2.5 -5.5t5.5 -2.5z" />
    <glyph glyph-name="uniE029" unicode="&#xe029;" horiz-adv-x="464" 
d="M240 -24v152q0 3 -1.5 9.5t-5.5 6.5q-3 0 -6 -2.5t-3 -5.5v-160q0 -3 3 -5.5t6 -2.5q4 0 5.5 2.5t1.5 5.5zM241 455v17q0 3 -2 5.5t-6 2.5q-3 0 -5.5 -2.5t-2.5 -5.5v-17q0 -3 2.5 -5.5t5.5 -2.5q4 0 6 2.5t2 5.5zM62 424l-57 -44q-2 -3 -3.5 -6t-1.5 -6t1.5 -6.5
t4.5 -5.5l56 -44q3 -3 9 -5.5t11 -2.5h221q7 0 12 5t5 12v94q0 7 -5 12t-12 5h-221q-5 0 -10.5 -2t-9.5 -6v0zM304 321v-1h-1h-221q-2 0 -5 1t-5 3l-56 44l57 44q1 2 4 3t5 1l222 -1v-94v0zM402 280q-3 3 -9 5.5t-11 2.5h-221q-7 0 -12 -5t-5 -12v-94q0 -7 5 -12t12 -5h221
q5 0 10.5 2t9.5 6l57 44q2 3 3.5 6t1.5 6t-1.5 6.5t-4.5 5.5zM160 272h222q2 0 5 -1t5 -3l56 -44l-57 -44q-1 -2 -4 -3t-5 -1h-222v96v0z" />
    <glyph glyph-name="uniE02A" unicode="&#xe02a;" horiz-adv-x="560" 
d="M439 443q0 2 -1.5 3t-2.5 2h-3.5t-3.5 -1l-190 -100q-3 -2 -4 -5t0 -5l4 -11l-110 -60q-3 -1 -4 -4t0 -6l4 -9l-117 -56q-3 -1 -4 -4t0 -6l24 -58q1 -2 3 -3.5t5 -1.5l1 0.5l1 0.5l122 43l4 -9q1 -2 3 -3.5t4 -1.5q1 0 1.5 0.5t1.5 0.5l116 33l4 -9q0 -2 2.5 -3.5
t4.5 -1.5h1.5h0.5l208 64q2 1 3 2t2 3q1 1 1 2.5t-1 3.5l-80 200v0zM43 136l-18 44l109 52l23 -55l-114 -41v0zM179 166l-4 9v0v0l-29 71v0v0l-4 10l101 55l38 -98l6 -16l-108 -31v0zM309 186l-3 8v0.5t-1 0.5l-9 25l-44 116l176 93l73 -184l-192 -59v0zM463 475
q-1 3 -4 4.5t-6 -0.5q-3 -1 -4.5 -4t0.5 -6l96 -240q1 -2 3 -3.5t4 -1.5h1.5t1.5 1q3 1 4.5 4t-0.5 6l-96 240v0zM288 144h-48q-14 0 -23 -9t-9 -23v-21l-94 -110q-2 -2 -2 -5.5t3 -5.5q1 -1 2.5 -1.5t2.5 -0.5q2 0 3.5 0.5t2.5 2.5l94 109h36v-104q0 -3 2.5 -5.5t5.5 -2.5
t5.5 2.5t2.5 5.5v104h36l94 -109q1 -2 2.5 -2.5t3.5 -0.5q1 0 2.5 0.5t2.5 1.5q3 2 3 5.5t-2 5.5l-94 110v20q0 14 -9.5 23.5t-22.5 9.5v0zM304 96h-80v16q0 7 4.5 11.5t11.5 4.5h48q7 0 11.5 -5t4.5 -12v-15z" />
    <glyph glyph-name="uniE02B" unicode="&#xe02b;" horiz-adv-x="672" 
d="M59 132q2 0 4.5 -2t3.5 -5l5 -13q1 -2 1 -5.5t-1 -5.5l-22 -36q-4 -6 -3.5 -13.5t5.5 -12.5l19 -19q5 -5 12.5 -5.5t13.5 3.5l37 22q1 1 4.5 1t5.5 -1l14 -5q2 -1 4 -3.5t2 -4.5l11 -42q1 -6 6.5 -11t12.5 -6h4h10h10h4q7 1 12.5 6t7.5 11l10 42q0 2 2 4.5t5 3.5l13 5
q2 1 5.5 1t5.5 -1l36 -22q2 -2 5 -2.5t6 -0.5q4 0 8 1t7 4l19 19q5 5 5.5 12.5t-3.5 13.5l-22 36q-1 2 -1 5.5t1 5.5l5 14q1 2 3.5 4t4.5 2l42 10q6 2 11 7.5t6 12.5v4v10v10v4q-1 7 -6 12.5t-11 6.5l-42 10q-2 1 -4.5 3t-3.5 5l-5 13q-1 2 -1 5.5t1 4.5l22 37q4 6 3.5 13.5
t-5.5 12.5l-19 19q-5 5 -12.5 5.5t-13.5 -3.5l-36 -22q-2 -1 -5.5 -1t-5.5 1l-14 5q-2 1 -4 3.5t-2 4.5l-10 42q-2 6 -7.5 11t-12.5 6q0 -1 -4 -0.5t-10 0.5t-10 -0.5l-4 -0.5q-7 0 -12.5 -5t-7.5 -11l-10 -42q0 -2 -2 -4.5t-5 -3.5l-13 -5q-2 -1 -5.5 -1t-5.5 1l-36 22
q-6 4 -13.5 3.5t-12.5 -5.5l-19 -19q-5 -5 -5.5 -12.5t3.5 -13.5l22 -36q1 -2 1 -5.5t-1 -5.5l-5 -14q-1 -2 -3.5 -4t-4.5 -2l-42 -11q-6 -1 -11 -6.5t-6 -12.5q1 0 0.5 -4t-0.5 -10t0.5 -10l0.5 -4q0 -7 5 -12.5t11 -7.5l42 -10v0zM16 176v8.5v3.5q1 2 2.5 4t2.5 2l42 10
q6 1 11.5 6t7.5 11l5 12q3 6 2.5 13.5t-3.5 12.5l-23 36q-1 2 -0.5 4t1.5 3l18 18q1 1 3 1.5t4 -0.5l36 -23q5 -3 13 -3t12 2l13 5q6 2 11 7.5t6 11.5l10 42q0 1 2 2.5t4 2.5h3.5h8.5h8.5h3.5q2 -1 4 -2.5t2 -2.5l10 -42q1 -6 6 -11.5t11 -7.5l12 -5q6 -2 13.5 -2t12.5 3
l36 23q2 1 4 0.5t3 -1.5l18 -18q1 -1 1.5 -3t-0.5 -4l-23 -36q-3 -5 -3.5 -12.5t2.5 -12.5l5 -13q2 -6 7.5 -11t11.5 -6l42 -10q1 0 2.5 -2t2.5 -4v-3.5v-8.5v-8.5v-3.5q-1 -2 -2.5 -4t-2.5 -2l-42 -10q-6 -1 -11.5 -6t-7.5 -11l-5 -12q-3 -6 -2.5 -13.5t3.5 -12.5l23 -36
q1 -2 0.5 -4t-1.5 -3l-18 -18q0 -1 -1.5 -1h-2.5h-1.5h-1.5l-36 23q-5 3 -12.5 3t-12.5 -2l-13 -5q-6 -2 -11 -7.5t-6 -11.5l-10 -42q0 -1 -2 -2.5t-4 -2.5h-3.5h-8.5h-8.5h-3.5q-2 1 -4 2.5t-2 2.5l-10 42q-1 6 -6 11.5t-11 7.5l-12 5q-3 1 -6 1.5t-6 0.5q-4 0 -7.5 -1
t-6.5 -2l-36 -23q-2 -1 -4 -0.5t-3 1.5l-18 18q-1 1 -1.5 3t0.5 4l23 36q3 5 3.5 12.5t-2.5 12.5l-5 13q-2 6 -7.5 11t-11.5 6l-42 10q-1 0 -2.5 2t-2.5 4v3.5v8.5v0zM208 88q36 0 62 26t26 62t-26 62t-62 26t-62 -26t-26 -62t26 -62t62 -26zM208 248q30 0 51 -21t21 -51
t-21 -51t-51 -21t-51 21t-21 51t21 51t51 21zM440 395q-1 -1 -2.5 -1.5t-2.5 -0.5h-29q-6 0 -10.5 -3.5t-6.5 -8.5l-1 -2.5t-2 -6.5l-1.5 -7.5l-0.5 -2.5q-1 -5 2 -10.5t7 -8.5l27 -13q0 -1 1 -2t1 -3l2 -10q0 -1 -0.5 -2.5t-1.5 -1.5l-21 -21q-4 -4 -4.5 -10t1.5 -11
l10 -16q3 -4 8.5 -6t11.5 -1l29 9q1 0 2 -0.5t2 -0.5l8 -6q1 -1 1.5 -2.5l0.5 -1.5v-30q0 -6 3.5 -10.5t8.5 -6.5l2.5 -1t6.5 -2l7.5 -1.5l2.5 -0.5h1h1q5 0 9.5 2.5t7.5 6.5l13 27q1 0 2 1t3 1l10 2q1 0 2.5 -0.5t1.5 -1.5l21 -21q4 -4 9.5 -5t11.5 2l16 10q5 3 7 8.5
t0 11.5l-9 28v2.5t1 2.5l6 8q1 1 2.5 1.5t2.5 0.5h29q6 0 10.5 3.5t6.5 8.5l1 2.5t2 6.5l1.5 7.5l0.5 2.5q1 5 -2 10.5t-7 8.5l-27 13q0 1 -1 2t-1 3l-2 10q0 1 0.5 2.5t1.5 1.5l21 21q4 4 4.5 10t-1.5 11l-10 16q-3 4 -8.5 6t-11.5 1l-29 -9q-1 0 -2 0.5t-2 0.5l-8 6
q-1 1 -1.5 2.5t-0.5 2.5v29q0 6 -3.5 10.5t-8.5 6.5l-2.5 1t-6.5 2l-7.5 1.5l-2.5 0.5h-1h-1q-5 0 -9.5 -2.5t-7.5 -6.5l-13 -27q-1 0 -2 -1t-3 -1l-10 -2q-1 0 -2.5 0.5t-1.5 1.5l-21 21q-4 4 -9.5 5t-11.5 -2l-16 -10q-5 -3 -7 -8.5t0 -11.5l9 -28q0 -1 -0.5 -2.5
t-0.5 -2.5l-6 -8v0zM453 386l5 7q3 4 4.5 9.5t-0.5 10.5l-9 28q0 1 0.5 1.5l0.5 0.5l15 9l2 -1l20 -21q3 -2 7 -4t9 -2h2h1l9 2q5 0 10 3.5t7 7.5l14 26l0.5 0.5t1.5 0.5l2 -0.5l6 -1.5q3 0 5.5 -1l2.5 -1l0.5 -0.5t0.5 -1.5v-29q0 -5 2.5 -10t6.5 -8l7 -5q4 -3 9.5 -4.5
t10.5 0.5l28 9q1 0 1.5 -0.5l0.5 -0.5l9 -15v-0.5t-1 -1.5l-21 -20q-3 -4 -5 -9.5t-1 -9.5l2 -9q0 -5 3.5 -10t7.5 -7l26 -14l0.5 -0.5t0.5 -1.5l-0.5 -2l-1.5 -6q-1 -3 -1.5 -5.5l-0.5 -2.5l-0.5 -0.5t-1.5 -0.5h-30q-4 0 -9 -2.5t-8 -6.5l-5 -7q-3 -4 -4.5 -9.5t0.5 -10.5
l9 -28q0 -1 -0.5 -1.5l-0.5 -0.5l-15 -9l-2 1l-20 21q-3 2 -7 4t-9 2h-1.5h-1.5l-9 -2q-5 0 -10 -3.5t-7 -7.5l-14 -26l-0.5 -0.5t-1.5 -0.5v0l-2 0.5l-6 1.5q-3 0 -5.5 1l-2.5 1l-0.5 0.5t-0.5 1.5v29q0 5 -2.5 10t-6.5 8l-7 5q-3 2 -6.5 3.5t-7.5 1.5h-3.5t-2.5 -1l-28 -9
q-1 0 -1.5 0.5l-0.5 0.5l-9 15v0.5t1 1.5l21 20q3 4 5 9.5t1 9.5l-2 9q0 5 -3.5 10t-7.5 7l-26 14q-1 0 -1 0.5v1.5l0.5 2l1.5 6q1 3 1.5 5.5l0.5 2.5l0.5 0.5t1.5 0.5h29q5 0 10 2.5t8 6.5v0zM528 288q20 0 34 14t14 34t-14 34t-34 14t-34 -14t-14 -34t14 -34t34 -14z
M528 368q13 0 22.5 -9.5t9.5 -22.5t-9.5 -22.5t-22.5 -9.5t-22.5 9.5t-9.5 22.5t9.5 22.5t22.5 9.5z" />
    <glyph glyph-name="uniE02C" unicode="&#xe02c;" 
d="M235 245q1 0 2.5 0.5t2.5 1.5l181 159l-10 12l-181 -159q-3 -2 -3 -5.5t2 -5.5q1 -2 2.5 -2.5t3.5 -0.5v0zM163 -32q74 0 115.5 48t41.5 104q0 16 -3.5 32.5t-9.5 28.5l73 36q2 1 3 3t1 4v64h48h1h1q8 1 11 4t3 12v64h48h3h1q2 -1 4.5 -1t4.5 3q3 2 3 4.5v4.5v2v3v72
q0 10 -7 17t-17 7h-62q-4 0 -8 -1.5t-7 -4.5l-211 -185q-8 2 -18.5 3.5t-18.5 1.5q-67 0 -115 -48t-48 -115t48 -115t115 -48v0zM163 278q6 0 16 -1.5t22 -3.5q2 -1 3.5 -0.5t3.5 2.5l214 187q1 1 2 1.5t2 0.5h62q4 0 6 -2t2 -6v-72h-56q-3 0 -5.5 -2.5t-2.5 -5.5v-72h-56
q-3 0 -5.5 -2.5t-2.5 -5.5v-67l-76 -38l-2 -2t-2 -3v-3.5t2 -3.5q5 -7 9.5 -23.5t4.5 -35.5q0 -50 -37.5 -93t-103.5 -43q-61 0 -104 43t-43 104t43 104t104 43zM136 48q23 0 39.5 16.5t16.5 39.5t-16.5 39.5t-39.5 16.5t-39.5 -16.5t-16.5 -39.5t16.5 -39.5t39.5 -16.5z
M136 144q17 0 28.5 -11.5t11.5 -28.5t-11.5 -28.5t-28.5 -11.5t-28.5 11.5t-11.5 28.5t11.5 28.5t28.5 11.5z" />
    <glyph glyph-name="uniE02D" unicode="&#xe02d;" horiz-adv-x="544" 
d="M89 -30q25 0 49 11.5t43 29.5l270 275q10 10 15.5 23.5t6.5 27.5q0 15 -5.5 28.5t-16.5 23.5q-21 21 -51 21t-52 -22l-207 -216q-2 -3 -2 -6.5t2 -5.5q3 -3 6.5 -3t5.5 3l207 216q17 17 40 17t39 -16q8 -8 12.5 -18t3.5 -22q0 -11 -4 -21t-12 -18l-270 -275
q-22 -21 -59 -33t-63 14q-13 12 -19 27t-5 32q0 16 7.5 32t21.5 29l308 313q13 13 31 19.5t40 6.5v0v0q21 0 39.5 -6.5t30.5 -18.5t18.5 -30.5t6.5 -39.5t-7 -39.5t-19 -30.5l-238 -248q-3 -3 -3 -6.5t3 -5.5q2 -3 5.5 -3t6.5 3l238 248q15 14 23 35.5t8 46.5t-8 46.5
t-22 35.5q-15 15 -36 23t-46 8v0v0q-25 -1 -46.5 -9t-36.5 -23l-309 -313q-32 -32 -33.5 -73t29.5 -71q11 -12 25 -17t29 -5v0z" />
    <glyph glyph-name="uniE02E" unicode="&#xe02e;" 
d="M304 216h4h4q14 0 27.5 5.5t24.5 16.5l118 118q11 11 16.5 24t5.5 28t-5.5 28t-15.5 23q-10 11 -23.5 16.5t-27.5 5.5h-0.5h-0.5q-14 -1 -27.5 -6.5t-23.5 -15.5l-119 -119q-13 -13 -18.5 -30.5t-1.5 -35.5q1 -4 4 -6t6 -1t5 4t2 6q-3 14 1 27.5t14 23.5l119 119
q8 8 18 12t21 4q12 0 22 -4t18 -12q8 -7 12 -17.5t4 -21.5t-4.5 -21.5t-12.5 -18.5l-118 -118q-10 -9 -22 -13.5t-24 -2.5q-4 0 -6.5 -2.5t-3.5 -5.5q0 -4 2 -6.5t6 -3.5v0zM242 108q14 13 19 31.5t1 37.5q-1 3 -4 5t-6 1q-4 -1 -6 -4t-1 -6q4 -14 0 -28.5t-15 -24.5
l-118 -119q-8 -8 -18.5 -12t-21.5 -4q-12 -1 -22 3.5t-17 12.5q-8 7 -12.5 17.5t-3.5 21.5q0 11 4 21.5t12 18.5l119 118q9 9 21 13.5t25 2.5q4 0 6.5 2t3.5 6q0 4 -2 6.5t-6 2.5q-17 2 -32.5 -3.5t-27.5 -17.5l-119 -118q-10 -11 -15.5 -24t-6.5 -28q0 -15 5.5 -28
t16.5 -23q10 -11 23 -16.5t28 -5.5v0v0q15 1 28 6.5t24 15.5l118 119v0zM364 338q-3 3 -6.5 3t-5.5 -3l-216 -216q-3 -2 -3 -6t3 -6q1 -1 2.5 -2t3.5 -1q1 0 2.5 1t3.5 2l216 216q2 2 2 6t-2 6z" />
    <glyph glyph-name="uniE02F" unicode="&#xe02f;" horiz-adv-x="672" 
d="M648 480h-160q-8 0 -17.5 -4t-15.5 -10l-21 -21q-2 -3 -2 -6t2 -6q2 -2 5.5 -2t5.5 2l22 22q3 3 9.5 6t11.5 3h160q3 0 5.5 -2.5t2.5 -5.5v-161q0 -5 -3 -11.5t-6 -9.5l-225 -224q-3 -2 -6.5 -2t-5.5 2l-43 43q-2 2 -5 2t-6 -2q-2 -3 -2 -6t2 -6l43 -42q3 -3 7.5 -5
t9.5 -2q4 0 8.5 1.5t8.5 5.5l225 223q6 6 10 15.5t4 17.5v161q0 10 -7 17t-17 7v0zM625 400q0 13 -9.5 22.5t-22.5 9.5q-14 0 -23 -9.5t-9 -22.5t9 -22.5t23 -9.5q13 0 22.5 9.5t9.5 22.5zM577 400q0 7 4.5 11.5t11.5 4.5q6 0 11 -4.5t5 -11.5t-5 -11.5t-11 -4.5
q-7 0 -11.5 4.5t-4.5 11.5zM263 416q-8 0 -17.5 -4t-14.5 -10l-224 -226q-7 -7 -7 -17t7 -17l167 -167q3 -3 7.5 -5t9.5 -2t9.5 1.5t7.5 5.5l225 223q6 6 10 15.5t4 17.5v161q0 10 -7 17t-17 7h-160v0zM432 392v-161q0 -5 -3 -11.5t-7 -9.5l-225 -224q-2 -2 -5.5 -2t-6.5 2
l-167 167q-2 3 -2 6t2 6l224 226q4 3 10 6t11 3h160q4 0 6.5 -2.5t2.5 -5.5v0zM368 368q-13 0 -22.5 -9.5t-9.5 -22.5t9.5 -22.5t22.5 -9.5t22.5 9.5t9.5 22.5t-9.5 22.5t-22.5 9.5zM368 320q-7 0 -11.5 4.5t-4.5 11.5t4.5 11.5t11.5 4.5t11.5 -4.5t4.5 -11.5t-4.5 -11.5
t-11.5 -4.5z" />
    <glyph glyph-name="uniE030" unicode="&#xe030;" horiz-adv-x="352" 
d="M176 480q-63 0 -119.5 -47t-56.5 -129q0 -40 16 -73.5t46 -59.5q1 0 1 -0.5t1 -0.5q23 -25 27.5 -34t4.5 -20v-6v-3v-3q0 -5 1.5 -12.5t12.5 -11.5l130 -28h0.5h1.5q2 0 4.5 1.5t2.5 4.5q1 3 -1 6t-5 3l-129 29q-2 0 -2 1v7v3v1.5v7.5q0 15 -6.5 27t-30.5 38q0 1 -1 1.5
l-1 0.5q-28 24 -42.5 54.5t-14.5 66.5q0 74 51 117t109 43q59 0 109.5 -42.5t50.5 -117.5q0 -48 -18.5 -76t-37.5 -45q-1 0 -1.5 -0.5l-1.5 -1.5q-24 -26 -30.5 -38t-6.5 -27v-0.5v-1.5v0v-1.5v-0.5h-1.5h-0.5l-67 16q-3 1 -6 -1t-4 -5t1 -6t5 -4l66 -15q1 -1 6 -1.5t10 2.5
q2 2 4.5 5.5t2.5 8.5v1v0.5v1.5v0v0v1q0 11 4.5 20t27.5 34v0h1q32 27 47.5 60t15.5 74q0 83 -55.5 129.5t-120.5 46.5v0zM240 8q3 0 5 1.5t3 4.5t-1 6t-5 4l-128 29q-3 1 -6 -1t-4 -5t1 -6t5 -4l128 -29h1.5h0.5zM122 7q-4 1 -6.5 -1t-3.5 -5t1 -6t5 -3l104 -24h1.5h0.5
q3 0 5 1.5t3 4.5t-1 6t-5 4l-104 23v0z" />
    <glyph glyph-name="uniE031" unicode="&#xe031;" 
d="M492 364l-184 104q-19 11 -47 11t-47 -11l-185 -104q-10 -6 -16 -14t-6 -18q0 -9 6 -17t16 -14l185 -104q9 -6 21.5 -8.5t25.5 -2.5t25 2.5t22 8.5l184 104q11 6 16.5 14t5.5 17q0 10 -5.5 18t-16.5 14zM484 316l-185 -104q-15 -9 -38.5 -9t-38.5 9l-184 104
q-7 3 -10 7.5t-3 8.5q0 5 3 9t10 8l184 104q8 4 18 6.5t21 2.5t21 -2.5t17 -6.5l185 -104q6 -4 9.5 -8t3.5 -9q0 -4 -3.5 -8.5t-9.5 -7.5v0zM492 254q-3 2 -6.5 1t-4.5 -4q-2 -3 -1 -6.5t4 -4.5q6 -4 9.5 -8.5t3.5 -8.5t-3.5 -8.5t-9.5 -8.5l-185 -104q-15 -9 -38 -9t-39 9
l-184 104q-7 4 -10 8.5t-3 8.5t3 8.5t10 8.5q3 1 4 4.5t-1 6.5t-5.5 4t-6.5 -1q-10 -6 -16 -14t-6 -17t6 -17.5t16 -14.5l185 -104q10 -5 22 -8t25 -3q12 0 24.5 3t22.5 8l184 104q11 6 16.5 14.5t5.5 17.5t-5.5 17t-16.5 14v0zM492 147q-3 2 -6.5 1t-4.5 -4q-2 -3 -1 -6.5
t4 -5.5q6 -3 9.5 -7.5t3.5 -8.5q0 -5 -3.5 -9t-9.5 -8l-185 -104q-15 -9 -38 -9t-39 9l-184 104q-7 4 -10 8t-3 9q0 4 3 8.5t10 7.5q3 2 4 5.5t-1 6.5t-5.5 4t-6.5 -1q-10 -6 -16 -14t-6 -17q0 -10 6 -18t16 -14l185 -104q10 -6 22 -8.5t25 -2.5q12 0 24.5 2.5t22.5 8.5
l184 104q11 6 16.5 14t5.5 18q0 9 -5.5 17t-16.5 14v0z" />
    <glyph glyph-name="uniE032" unicode="&#xe032;" 
d="M0 -24q0 -3 2.5 -5.5t5.5 -2.5h498q1 0 1.5 0.5t1.5 0.5t1.5 0.5t0.5 1.5v0h1v0v0q0 1 0.5 1.5t0.5 1.5l0.5 0.5l0.5 0.5v0.5v0.5v1.5t-1 0.5v0.5v0.5l-50 155q0 1 -0.5 2t-1.5 1l-274 274q0 1 -0.5 1t-0.5 1l-60 59q-7 8 -17.5 8t-17.5 -8l-84 -83q-3 -4 -5 -8.5
t-2 -9.5t2 -9.5t5 -8.5l59 -58v-0.5t1 -0.5l273 -276q1 0 2 -0.5t1 -1.5l108 -32h-443q-3 0 -5.5 -2t-2.5 -6v0zM102 317l251 -247l-9 -32l-260 261l18 18v0zM365 80l-252 249l39 39l250 -251v-37h-37zM412 130l-249 249l17 17l259 -260l-27 -6v0zM368 64h42q3 0 5.5 2.5
t2.5 5.5v43l32 7l43 -134l-135 41zM16 371q0 2 0.5 3.5t2.5 2.5l83 84q3 3 6.5 3t6.5 -3l54 -54l-96 -96l-54 54q-2 1 -2.5 2.5t-0.5 3.5v0z" />
    <glyph glyph-name="uniE033" unicode="&#xe033;" horiz-adv-x="496" 
d="M3 390q-10 -11 -9 -23.5t10 -20.5l29 -28.5l75 -73.5q1 -2 2.5 -2.5t3.5 -0.5q1 0 2.5 0.5t2.5 2.5q3 2 3 5t-3 6q-6 7 -13 13.5l-13 12.5l26 25q2 3 2 6t-2 6q-3 2 -6 2t-6 -2l-25 -26l-20 20l-17 17l58 57q2 3 2 6t-2 6q-3 2 -6 2t-6 -2l-58 -58l-13 13l-5 5
q-3 2 -4.5 8t4.5 12l80 80q2 3 7.5 5t12.5 -4q0 -1 28 -31.5t75 -76.5q2 -3 5 -3t6 3q2 2 2 5.5t-2 5.5q-46 46 -74 76.5t-28 31.5q-11 11 -23.5 9t-20.5 -9l-80 -80v0zM343 94q-3 2 -6 2t-6 -2l-25 -26l-12 12l-13 13q-2 2 -5.5 2t-5.5 -2t-2 -5.5t2 -5.5l73 -74.5
t28 -30.5q5 -4 10 -6t12 -2v0q6 0 12 2t10 6l80 81q7 8 7.5 19t-6.5 18l-107 107q-3 3 -6 3t-6 -3q-2 -2 -2 -5.5t2 -5.5l108 -107q2 -3 1.5 -7t-3.5 -7l-80 -81q-1 -2 -4 -3t-6 -1v0v0q-3 0 -5.5 0.5t-4.5 3.5l-5 5l-14 14l59 58q2 3 2 6t-2 6q-3 2 -6 2t-6 -2l-58 -58
l-16 16.5l-20 20.5l26 25q2 3 2 6t-2 6v0zM-5 -29q1 -1 2.5 -2t3.5 -1q1 0 1.5 0.5l0.5 0.5l160 47q1 1 2 1.5t2 0.5l273 276l0.5 0.5l0.5 0.5l59 58q3 4 5 8.5t2 9.5t-2 9.5t-5 8.5l-84 83q-7 8 -17.5 8t-17.5 -8l-60 -59l-1 -1v-1l-274 -274q-1 0 -1.5 -1t-0.5 -2
l-51 -155q0 -2 0.5 -4.5t1.5 -3.5v0zM327 396l16 -17l-248 -249l-28 6zM105 117l250 251l39 -39l-252 -249h-37v37v0zM423 299l-260 -261l-9 32l251 247zM57 122l32 -7v-43q0 -3 2.5 -5.5t5.5 -2.5h42l10 -35l-136 -41l44 134v0zM392 461q2 3 6 3t6 -3l84 -84q1 -1 2 -2.5
t1 -3.5t-1 -3.5t-2 -2.5l-54 -54l-96 96l54 54v0z" />
    <glyph glyph-name="uniE034" unicode="&#xe034;" 
d="M454 458q1 2 1.5 3.5t0.5 3.5t-1.5 3.5t-3.5 2.5q-27 13 -57 8t-51 -27q-21 -20 -27.5 -49.5t3.5 -56.5l-185 -185q-7 3 -15.5 4.5t-16.5 1.5q-20 0 -39.5 -8t-33.5 -22q-21 -22 -26.5 -51t6.5 -57q0 -2 2 -3l4 -2q1 0 3 0.5t4 1.5l56 57q2 2 6 2.5t6 -1.5l24 -26
q3 -2 3 -6t-3 -6l-56 -56q-1 -2 -1.5 -3.5t-0.5 -3.5t1.5 -3.5t3.5 -2.5q10 -5 20 -7.5t21 -2.5q19 0 36.5 7.5t30.5 21.5q21 20 27.5 49.5t-3.5 56.5l185 185q7 -3 15 -4.5t17 -1.5q20 0 39.5 8t33.5 22q21 22 26.5 51.5t-6.5 56.5q0 2 -2 3.5t-4 1.5q-1 0 -3 -0.5t-4 -1.5
l-56 -56q-2 -3 -6 -3t-6 3l-24 24q-3 2 -3 6t3 6l56 56v0zM386 378l24 -24q8 -7 18.5 -7t17.5 7l47 47q5 -21 -0.5 -42t-20.5 -37q-12 -12 -28.5 -18.5t-33.5 -6.5q-8 0 -16 1.5t-15 4.5q-2 1 -4.5 0.5t-4.5 -1.5l-192 -192q-1 -2 -1.5 -4.5t0.5 -4.5q9 -23 4 -49.5
t-23 -44.5q-16 -16 -37.5 -21.5t-42.5 1.5l47 47q8 8 8 18t-7 18l-24 25q-7 7 -18 6.5t-18 -7.5l-47 -47q-5 21 0.5 42t21.5 36q11 13 27.5 19.5t33.5 6.5q8 0 16 -1.5t15 -4.5q2 -1 4.5 -0.5t4.5 1.5l192 192q1 2 1.5 4.5t-0.5 4.5q-9 23 -4 49.5t23 44.5q16 16 37.5 21
t42.5 -1l-48 -47q-7 -8 -7 -18t7 -18v0zM467 -10q-2 -3 -6 -3t-7 3l-160 160q-3 2 -6 2t-6 -2q-2 -3 -2 -6t2 -6l161 -160q3 -3 8 -5t10 -2v0v0q5 0 9.5 2t8.5 5l23 24q7 8 7 18t-7 18l-160 160q-3 2 -6 2t-6 -2q-2 -3 -2 -6t2 -6l160 -160q3 -2 3 -6t-3 -6l-23 -24v0z
M94 430l-48 48q-3 2 -6 2t-6 -2l-32 -32q-2 -3 -2 -6t2 -6l48 -48l3 -1.5t3 -0.5t3 0.5l3 1.5l10 11l122 -123l3 -1.5t3 -0.5t3 0.5l3 1.5q2 3 2 6t-2 6l-123 122l11 10q2 3 2 6t-2 6v0zM56 403l-37 37l21 21l37 -37z" />
    <glyph glyph-name="uniE035" unicode="&#xe035;" 
d="M408 16q23 0 39.5 16.5t16.5 39.5t-16.5 39.5t-39.5 16.5t-39.5 -16.5t-16.5 -39.5t16.5 -39.5t39.5 -16.5zM408 112q17 0 28.5 -11.5t11.5 -28.5t-11.5 -28.5t-28.5 -11.5t-28.5 11.5t-11.5 28.5t11.5 28.5t28.5 11.5zM300 97q0 -18 3.5 -37.5t9.5 -31.5q12 -30 35 -45
t57 -15q44 0 75.5 31.5t31.5 75.5q0 43 -30.5 71t-76.5 28q-53 0 -73.5 19.5l-21.5 20.5l-0.5 0.5l-0.5 0.5l-246 262q-1 2 -3.5 2.5t-4.5 -0.5q-3 0 -4 -2.5t-1 -4.5q0 -58 17 -103t43.5 -80t58 -62l59.5 -50q30 -23 51 -42.5t21 -37.5v0zM66 451l231 -246q3 -5 27 -26
t81 -21q39 0 65 -23.5t26 -59.5q0 -38 -26.5 -64.5t-64.5 -26.5q-29 0 -48 12.5t-29 37.5q-5 10 -8.5 27.5t-3.5 35.5q0 24 -23 45.5t-55 47.5q-26 20 -55 45t-53.5 56t-42 70.5t-21.5 89.5v0zM48 72q0 -23 16.5 -39.5t39.5 -16.5t39.5 16.5t16.5 39.5t-16.5 39.5
t-39.5 16.5t-39.5 -16.5t-16.5 -39.5zM144 72q0 -17 -11.5 -28.5t-28.5 -11.5t-28.5 11.5t-11.5 28.5t11.5 28.5t28.5 11.5t28.5 -11.5t11.5 -28.5zM330 232q-2 -2 -2.5 -5t2.5 -6q1 -1 2.5 -1.5t3.5 -0.5q1 0 2.5 0.5t2.5 1.5q42 38 81.5 97.5t39.5 153.5q0 2 -1 4.5
t-4 2.5q-2 1 -4.5 0.5t-3.5 -2.5l-175 -186q-2 -2 -2 -5.5t2 -5.5q3 -2 6 -2t6 2l160 171q-5 -79 -41.5 -131.5t-74.5 -87.5zM175 178q3 1 4 4t0 6t-4 4.5t-6 0.5t-5.5 -2.5t-5.5 -2.5q-10 -5 -23 -9.5t-28 -4.5q-46 0 -76.5 -28t-30.5 -71q0 -44 31.5 -75.5t75.5 -31.5
q34 0 57 15t35 45q6 13 7.5 36.5t1.5 39.5q0 3 7 9l12 10q6 4 10.5 8t8.5 8q2 2 2 5.5t-3 5.5q-2 2 -5.5 2t-5.5 -3q-3 -3 -7.5 -6.5l-8.5 -6.5q-10 -8 -18 -15.5t-8 -16.5q0 -25 -2 -43.5t-6 -26.5q-10 -25 -29 -37.5t-48 -12.5q-38 0 -64.5 26.5t-26.5 64.5q0 36 26 59.5
t65 23.5q18 0 32.5 5.5l24.5 9.5q3 2 5.5 3t5.5 2v0zM243 208q0 -5 4 -9t9 -4t9 4t4 9q0 6 -4 9.5t-9 3.5t-9 -3.5t-4 -9.5v0z" />
    <glyph glyph-name="uniE036" unicode="&#xe036;" horiz-adv-x="352" 
d="M246 144h74q12 0 21.5 9t10.5 22v274q-1 13 -10.5 22t-21.5 9h-288q-12 0 -21.5 -9t-10.5 -22v-274q1 -13 10.5 -22t21.5 -9h80q4 0 18.5 -3.5t14.5 -21.5q0 -31 -5 -47l-7 -22l-1 -1l6 -3v0l-7 1v-0.5v-0.5q-2 -5 -3 -10t-1 -11q0 -25 13.5 -41t35.5 -16t36 16t14 41
q0 5 -1 9.5t-3 9.5q0 1 -0.5 2.5t-1.5 2.5q0 1 -0.5 1.5t-0.5 1.5q-3 5 -7 18.5t-4 48.5q0 8 8.5 16.5t29.5 8.5v0zM16 287h320v-63h-320v63v0zM32 464h288q6 0 10.5 -4.5t5.5 -10.5v-146h-320v146q1 6 5.5 10.5t10.5 4.5zM205 45q0 -1 0.5 -1.5t0.5 -1.5v-0.5v-0.5v0v0
q2 -4 2.5 -8t0.5 -8q0 -15 -7 -28t-26 -13q-18 0 -25.5 13t-7.5 28q0 4 1 8l2 8v0v0q0 1 0.5 1h0.5v2q3 6 8.5 23.5t5.5 51.5q0 24 -18 32.5t-32 8.5v0v0h-79q-6 0 -10.5 4.5t-5.5 10.5v33h320v-33q-1 -6 -5.5 -10.5t-10.5 -4.5h-74q-30 0 -42 -14t-12 -27q0 -38 5 -53.5
t8 -20.5v0z" />
    <glyph glyph-name="uniE037" unicode="&#xe037;" 
d="M168 480q-69 0 -118.5 -49.5t-49.5 -118.5t49.5 -118.5t118.5 -49.5q33 0 62 12t51 32l0.5 -0.5t0.5 -1.5l35 -34q-2 -4 -3.5 -8t-1.5 -8q0 -7 2.5 -12.5t7.5 -10.5l135 -136q5 -4 11 -6.5t12 -2.5t12 2.5t11 6.5q4 5 6.5 11t2.5 12t-2.5 12t-6.5 11l-136 135q-8 8 -19 9
t-20 -4l-34 35q-1 0 -1.5 0.5l-0.5 0.5q20 22 32 51t12 62q0 69 -49.5 118.5t-118.5 49.5zM356 147l135 -136q3 -2 4 -5t1 -6t-1 -6t-4 -5q-4 -5 -11 -5t-11 5l-136 135q-2 3 -3.5 6t-1.5 6t1.5 6t3.5 5t5 3.5t6 1.5t6 -1.5t6 -3.5zM168 160q-63 0 -107.5 44.5t-44.5 107.5
t44.5 107.5t107.5 44.5t107.5 -44.5t44.5 -107.5t-44.5 -107.5t-107.5 -44.5zM168 432q-50 0 -85 -35t-35 -85t35 -85t85 -35t85 35t35 85t-35 85t-85 35zM168 208q-43 0 -73.5 30.5t-30.5 73.5t30.5 73.5t73.5 30.5t73.5 -30.5t30.5 -73.5t-30.5 -73.5t-73.5 -30.5z" />
    <glyph glyph-name="uniE038" unicode="&#xe038;" horiz-adv-x="368" 
d="M184 384q4 0 6 2.5t2 5.5v24h8q3 0 5.5 2.5t2.5 5.5v48q0 3 -2.5 5.5t-5.5 2.5h-32q-3 0 -5.5 -2.5t-2.5 -5.5v-48q0 -3 2.5 -5.5t5.5 -2.5h8v-24q0 -3 2.5 -5.5t5.5 -2.5zM176 464h16v-32h-16v32zM4 -29q1 -1 2 -1h2q2 0 4 1t3 3l69 131q23 -12 48.5 -18t51.5 -6
q27 0 52 6t48 18l69 -131q1 -2 3 -3t4 -1h2t2 1q3 1 4 4.5t-1 6.5l-69 131q12 7 23.5 15.5t21.5 18.5q11 11 11 28t-11 28q-12 12 -29 12t-28 -12l-12 -10t-13 -9l-37 72q11 8 17.5 21t6.5 28q0 26 -19 45t-45 19t-44.5 -19t-18.5 -45q0 -15 6.5 -28t17.5 -21l-38 -72
q-7 4 -13 9l-12 10q-11 12 -28 12t-28 -12q-12 -11 -12 -28t12 -28q10 -10 21 -18.5t23 -15.5l-69 -131q-2 -3 -1 -6.5t4 -4.5v0zM54 199q5 0 9.5 -2t7.5 -5q23 -23 52 -35t61 -12t61.5 12t51.5 35q7 7 17.5 7t16.5 -7q7 -7 7 -17t-7 -17q-29 -29 -67 -45t-80 -16t-79.5 16
t-67.5 45q-7 7 -7 17t7 17q4 3 8 5t9 2v0zM137 305q0 20 14 34t33 14q20 0 34 -14t14 -34t-14 -33.5t-34 -13.5q-19 0 -33 13.5t-14 33.5v0zM158 247q6 -2 12.5 -3.5t13.5 -1.5t13.5 1t12.5 4l37 -71q-14 -7 -30 -11t-33 -4t-32.5 4t-30.5 11z" />
    <glyph glyph-name="uniE039" unicode="&#xe039;" horiz-adv-x="672" 
d="M624 480q-20 0 -34 -14t-14 -34q0 -11 4.5 -20t11.5 -16l-141 -224q-4 2 -9 3t-10 1q-10 0 -19 -4t-16 -11l-145 91q2 5 3 10t1 10q0 20 -14 34t-34 14t-34 -14t-14 -34q0 -11 4.5 -20t12.5 -16l-111 -176q-4 2 -8.5 3t-9.5 1q-20 0 -34 -14t-14 -34t14 -34t34 -14t34 14
t14 34q0 11 -4.5 20t-11.5 16l110 175q4 -1 8.5 -2t9.5 -1q10 0 19 4t16 11l145 -92q-2 -4 -3 -9t-1 -10q0 -20 14 -34t34 -14t34 14t14 34q0 10 -4 19t-11 16l141 225q4 -2 8.5 -3t9.5 -1q20 0 34 14t14 34t-14 34t-34 14v0zM80 16q0 -13 -9.5 -22.5t-22.5 -9.5t-22.5 9.5
t-9.5 22.5t9.5 22.5t22.5 9.5t22.5 -9.5t9.5 -22.5zM208 240q-13 0 -22.5 9.5t-9.5 22.5t9.5 22.5t22.5 9.5t22.5 -9.5t9.5 -22.5t-9.5 -22.5t-22.5 -9.5zM432 96q-13 0 -22.5 9.5t-9.5 22.5t9.5 22.5t22.5 9.5t22.5 -9.5t9.5 -22.5t-9.5 -22.5t-22.5 -9.5zM624 400
q-13 0 -22.5 9.5t-9.5 22.5t9.5 22.5t22.5 9.5t22.5 -9.5t9.5 -22.5t-9.5 -22.5t-22.5 -9.5z" />
    <glyph glyph-name="uniE03A" unicode="&#xe03a;" horiz-adv-x="240" 
d="M112 96v-64h-47q-14 0 -23 -9t-9 -23v-24q0 -3 2 -5.5t6 -2.5h160q3 0 5.5 2.5t2.5 5.5v23q0 14 -9.5 23.5t-22.5 9.5h-49v64q48 3 80.5 38t32.5 83v30q0 4 -2.5 6.5t-5.5 2.5q-4 0 -6.5 -2.5t-2.5 -6.5v-30q0 -43 -30.5 -73.5t-72.5 -30.5q-43 0 -73.5 30.5t-30.5 73.5
v30q0 4 -2.5 6.5t-5.5 2.5q-4 0 -6.5 -2.5t-2.5 -6.5v-30q0 -48 32.5 -83t79.5 -38v0zM193 -1v-15h-144v16q0 7 4 11.5t12 4.5h112q6 0 11 -5t5 -12zM121 481q-30 0 -51.5 -22t-21.5 -52v-190q0 -30 21.5 -52t51.5 -22t51 22t20 52v190q1 30 -20 52t-51 22zM176 217
q0 -23 -16.5 -39.5t-38.5 -16.5q-23 0 -40 16.5t-17 39.5v190q0 23 17 39.5t40 16.5q22 0 38.5 -16.5t16.5 -39.5v-190z" />
    <glyph glyph-name="uniE03B" unicode="&#xe03b;" horiz-adv-x="368" 
d="M352 -24q0 3 -2.5 5.5t-5.5 2.5h-288q-3 0 -5.5 -2.5t-2.5 -5.5t2.5 -5.5t5.5 -2.5h288q3 0 5.5 2.5t2.5 5.5zM20 330q-5 -3 -9.5 -12.5t2.5 -24.5q6 -12 17.5 -24.5t25.5 -16.5q6 -1 12.5 -0.5t12.5 4.5l27 17t20 14q9 -5 19 -5.5t21 1.5v0v0q-1 -19 -11 -36t-43 -47
q-29 -27 -45.5 -61t-15.5 -66q0 -22 7.5 -40t22.5 -31q1 -1 2.5 -1.5t2.5 -0.5h224q3 0 5.5 2.5t2.5 5.5t-2.5 5.5t-5.5 2.5h-221q-11 11 -16.5 25.5t-5.5 31.5q-1 29 14.5 60t41.5 55q35 33 47 53t12 47v0.5v1.5q6 3 11.5 8t9.5 10q5 7 11.5 23t-1.5 32q-1 3 -4 4.5
t-6 -0.5q-3 -1 -4.5 -4t0.5 -6q3 -8 1 -18t-10 -22q-4 -6 -11.5 -11t-16.5 -7t-17.5 -1t-13.5 5q-3 1 -5.5 1t-4.5 -1q0 -1 -17 -12.5l-33 -21.5q-3 -1 -6 -1.5t-7 0.5q-9 3 -18.5 12.5t-13.5 19.5q-4 8 -2 12t4 6q41 35 62 66t22 33q1 1 1 3v3l-3.5 10.5t-5.5 22.5
q13 -8 33 -16t42 -8q32 0 85.5 -26t53.5 -134q0 -1 -4 -51t-28 -114q-1 -3 0.5 -6t4.5 -5h1.5h1.5q2 0 4.5 1.5t3.5 3.5q24 67 28 118t4 53q0 122 -63.5 149t-91.5 27q-30 0 -55 15l-25 15q-2 2 -4 2t-5 -1q-2 -1 -3 -3t-1 -4q0 -12 4 -27.5t6 -22.5q-5 -9 -24.5 -36
t-53.5 -56v0zM280 455q-19 13 -42 19t-54 6q-3 0 -5.5 -2.5t-2.5 -5.5t2.5 -5.5t5.5 -2.5q29 0 49.5 -5t37.5 -17q28 -19 54.5 -59t26.5 -111q0 -17 -2 -44t-14 -74q-1 -3 1 -6t5 -4h1.5h0.5q3 0 5 1.5t3 4.5q12 49 14 76.5t2 45.5q0 77 -29 120t-59 63z" />
    <glyph glyph-name="uniE03C" unicode="&#xe03c;" horiz-adv-x="432" 
d="M280 464q3 0 5.5 2.5t2.5 5.5t-2.5 5.5t-5.5 2.5h-144q-3 0 -5.5 -2.5t-2.5 -5.5t2.5 -5.5t5.5 -2.5h144zM16 38q-13 -18 -13.5 -30t2.5 -19q4 -7 15 -14t36 -7h320q25 0 36 7t15 14q3 7 2.5 19t-13.5 29l-99 160l-1 2q-6 7 -25 46.5t-19 78.5v116q0 3 -2.5 5.5t-5.5 2.5
h-112q-3 0 -5.5 -2.5t-2.5 -5.5v-116q0 -42 -20 -85l-20 -43l-88 -158v0zM413 -4q-3 -6 -13 -9t-24 -3h-320q-14 0 -24 3t-13 9q-2 6 0.5 14t9.5 19l80 143v0q11 -6 24.5 -11.5t35.5 -5.5t35.5 5.5t23.5 11.5t21.5 10.5t30.5 4.5q7 0 13.5 -0.5t12.5 -2.5l97 -155
q7 -11 9.5 -19t0.5 -14v0zM160 324v108h96v-108q0 -34 14 -68.5t24 -53.5q-3 1 -6.5 1h-7.5q-22 0 -35.5 -5t-24.5 -12q-10 -6 -21 -10.5t-30 -4.5t-30.5 4.5t-21.5 10.5v0l1 2l21 45t21 91z" />
    <glyph glyph-name="uniE03D" unicode="&#xe03d;" horiz-adv-x="560" 
d="M349 433q-13 23 -30.5 35t-37.5 12q-19 0 -36.5 -12t-31.5 -35l-196 -338q-13 -24 -14.5 -47t9.5 -42q10 -18 29.5 -28t44.5 -10h390v0v0q25 0 44.5 10t29.5 28q11 19 9.5 42t-14.5 46l-196 339v0zM537 14q-9 -14 -24.5 -22t-36.5 -8h-390q-20 0 -36 8t-24 22
q-9 15 -7.5 34t12.5 39l196 338q11 19 25 29t29 10t29 -10t25 -29l196 -339q11 -19 12.5 -38t-6.5 -34v0zM281 160q3 0 5.5 2.5t2.5 5.5v160q0 3 -2.5 5.5t-5.5 2.5t-5.5 -2.5t-2.5 -5.5v-160q0 -3 2.5 -5.5t5.5 -2.5zM280 120q-13 0 -22.5 -9.5t-9.5 -22.5t9.5 -22.5
t22.5 -9.5t22.5 9.5t9.5 22.5t-9.5 22.5t-22.5 9.5zM280 72q-7 0 -11.5 4.5t-4.5 11.5t4.5 11.5t11.5 4.5t11.5 -4.5t4.5 -11.5t-4.5 -11.5t-11.5 -4.5z" />
    <glyph glyph-name="uniE03E" unicode="&#xe03e;" 
d="M194 437l-49 -73q-1 -2 -0.5 -5.5t3.5 -5.5q2 -1 5.5 -0.5t5.5 3.5l49 73q10 17 22.5 26t25.5 9t25.5 -9t22.5 -26l88 -154l-62 13q-4 1 -6.5 -1t-3.5 -5q-1 -4 1 -6.5t5 -3.5l80 -16h1.5h0.5q1 0 2 0.5t2 0.5v0v0v0v0l1 1l1 1v0h1v1.5v0.5l0.5 0.5l0.5 0.5v0v0l16 80
q0 4 -1.5 6.5t-4.5 3.5q-4 1 -6.5 -1t-3.5 -5l-12 -60l-86 151q-12 21 -28 32t-34 11t-34 -11t-28 -32v0zM160 24q0 3 -2.5 5.5t-5.5 2.5h-72q-19 0 -33 7t-21 19q-8 14 -7 31t12 34l88 155l26 -65q1 -2 3 -3.5t4 -1.5h1.5t1.5 1q3 1 4.5 4t-0.5 6l-32 80v0.5v0.5l-0.5 0.5
l-0.5 0.5q0 1 -0.5 1t-1.5 1v0v0v0v0q-1 0 -1.5 0.5t-1.5 0.5v0h-1h-0.5h-1.5l-80 -16q-3 -1 -4.5 -3.5t-1.5 -6.5q1 -3 3.5 -5t6.5 -1l62 13l-87 -154q-13 -21 -14 -42t9 -39q9 -16 27 -25t41 -9h72q3 0 5.5 2t2.5 6v0zM500 50q10 18 9 38.5t-13 41.5l-33 73q-1 3 -4 4.5
t-6 -0.5q-3 -1 -4.5 -4t0.5 -6l32 -74q10 -18 11.5 -34.5t-6.5 -30.5q-7 -12 -21 -19t-33 -7h-165l35 34q2 3 2 6t-2 6q-3 2 -6 2t-6 -2l-48 -48q-1 -2 -1.5 -3.5t-0.5 -2.5v0v0q0 -2 1 -3.5t2 -3.5l47 -47l3 -1.5t3 -0.5t3 0.5l3 1.5q2 3 2 6t-2 6l-34 34h164q23 0 41 9
t27 25v0z" />
    <glyph glyph-name="uniE03F" unicode="&#xe03f;" horiz-adv-x="560" 
d="M13 178l35 35v-13q0 -46 19 -87.5t51.5 -74t74 -51.5t87.5 -19t87.5 19t74 51.5t51.5 74t19 87.5v12l35 -35l3 -1.5t3 -0.5t3 0.5l3 1.5q2 2 2 5.5t-2 5.5l-49 49q-1 1 -2.5 2t-3.5 1h-1.5h-0.5q-1 -1 -2 -1.5t-2 -0.5l-49 -49q-2 -2 -2 -5.5t2 -5.5q3 -3 6 -3t6 3l35 35
v-13q0 -41 -17 -79.5t-46 -68t-66.5 -48t-78.5 -20.5v304h136q3 0 5.5 2.5t2.5 5.5t-2.5 5.5t-5.5 2.5h-136v65q20 3 34 18.5t14 36.5q0 23 -16.5 39.5t-39.5 16.5t-39.5 -16.5t-16.5 -39.5q0 -21 14 -36.5t34 -18.5v-65h-136q-3 0 -5.5 -2.5t-2.5 -5.5t2.5 -5.5t5.5 -2.5
h136v-304q-41 2 -78.5 20.5t-66.5 48t-46 68t-17 79.5v13l36 -36q1 -1 2.5 -1.5t2.5 -0.5q2 0 3.5 0.5t2.5 1.5q2 2 2 5.5t-2 5.5l-49 50q-1 1 -2.5 1.5t-3.5 0.5t-3.5 -0.5t-2.5 -1.5l-48 -49q-3 -2 -3 -5.5t3 -5.5q2 -3 5.5 -3t5.5 3v0zM280 464q17 0 28.5 -11.5
t11.5 -28.5t-11.5 -28.5t-28.5 -11.5t-28.5 11.5t-11.5 28.5t11.5 28.5t28.5 11.5z" />
    <glyph glyph-name="uniE040" unicode="&#xe040;" horiz-adv-x="576" 
d="M8 -32q3 -1 6 1t4 5q12 46 52.5 63t70.5 24l14 3.5t9 2.5q35 15 48.5 36.5t16.5 38.5q1 2 0 4l-2 4q-18 15 -32.5 37.5t-24.5 48.5q0 1 -0.5 2l-0.5 1q-13 14 -20 27.5t-7 25.5q0 7 3 11.5t8 7.5q2 1 3 3t1 4q3 61 41.5 103.5t91.5 42.5h1h1q53 -1 91 -44t40 -105
q0 -2 0.5 -3.5t2.5 -2.5q4 -3 5.5 -7.5t1.5 -9.5q0 -10 -5 -21.5t-14 -22.5q-1 -1 -1 -1.5v-1.5q-10 -30 -26.5 -56t-36.5 -42q-2 -2 -3 -4t0 -4q3 -17 16.5 -38.5t48.5 -36.5q4 -2 10 -3.5t14 -2.5q30 -7 70 -22.5t52 -61.5q1 -3 3 -4.5t5 -1.5h0.5h1.5q3 1 5 4t1 6
q-14 53 -59 71t-76 24l-12.5 3.5t-8.5 2.5q-22 9 -36 24t-19 34q21 18 37.5 44.5t26.5 57.5q11 14 16.5 27.5t5.5 25.5q0 8 -2.5 14.5t-7.5 12.5q-3 67 -45.5 113.5t-101.5 47.5h-3q-58 0 -100.5 -45.5t-47.5 -111.5q-7 -6 -11 -13.5t-4 -17.5q0 -14 8 -30.5t22 -31.5
q9 -27 24 -50t33 -39q-5 -20 -19 -34.5t-36 -24.5q-3 -1 -8.5 -2.5t-11.5 -3.5q-31 -7 -76 -26t-60 -72q-1 -3 1 -6t5 -4v0z" />
    <glyph glyph-name="uniE041" unicode="&#xe041;" horiz-adv-x="576" 
d="M356 148q-2 1 -4 0t-3 -2q-2 -1 -2.5 -3t0.5 -4q3 -17 16.5 -38.5t48.5 -36.5q4 -2 10 -3.5t14 -2.5q30 -7 70 -23t52 -61q1 -3 3 -4.5t5 -1.5h0.5h1.5q3 1 5 4t1 6q-14 53 -59 71t-76 24q-7 2 -12.5 3t-8.5 3q-21 9 -34 22t-19 30q57 -4 84 10.5t28 15.5q2 2 2.5 3.5
t0.5 3.5t-1 3.5t-3 2.5q-33 19 -38.5 69.5t-5.5 75.5q0 68 -40.5 116t-99.5 49h-2h-1v0v0q-60 0 -102.5 -47.5t-42.5 -114.5q0 -24 -5.5 -75t-38.5 -69q-2 -1 -3 -3t-1 -4t1 -3.5t2 -3.5q2 -1 34 -18.5t77 -8.5q-6 -17 -19 -29.5t-33 -21.5q-3 -1 -8.5 -2.5t-11.5 -3.5
q-31 -7 -76 -26t-60 -72q-1 -3 1 -6t5 -4t6 1t4 5q12 46 52.5 63t70.5 24l14 3.5t9 2.5q35 15 48.5 36.5t16.5 38.5q1 2 0 4l-2 4q-2 1 -4 1.5t-4 -0.5q-32 -10 -60 -1t-41 17q32 26 37 75t5 76q0 60 38 103t92 43h1h1q53 -1 88.5 -43.5t35.5 -105.5q0 -27 5 -76t37 -76
q-11 -6 -36 -13t-66 -2v0z" />
    <glyph glyph-name="uniE042" unicode="&#xe042;" horiz-adv-x="896" 
d="M728 304q-23 0 -44.5 -6t-39.5 -17l-109 167h153q0 -6 -2 -15t-9 -17t-18.5 -12t-26.5 -4q-3 0 -5.5 -2.5t-2.5 -5.5t2.5 -5.5t5.5 -2.5q19 0 33.5 5.5t23.5 16.5q14 16 14.5 33t0.5 18q0 3 -2.5 5t-5.5 2h-176q-2 0 -4 -1t-3 -3t-1 -4.5t1 -3.5l46 -70h-254l-50 82h89
q3 0 5.5 2.5t2.5 5.5t-2.5 5.5t-5.5 2.5h-144q-3 0 -5.5 -2.5t-2.5 -5.5t2.5 -5.5t5.5 -2.5h37v-0.5v-0.5l55 -91l-49 -86q-17 9 -36 13.5t-39 4.5q-69 0 -118.5 -49.5t-49.5 -118.5t49.5 -118.5t118.5 -49.5q67 0 115.5 46.5t51.5 113.5h177q0 -7 -2 -15.5t-8 -16.5
q-7 -8 -18.5 -12t-27.5 -4q-3 0 -5.5 -2.5t-2.5 -5.5t2.5 -5.5t5.5 -2.5q19 0 33.5 5.5t24.5 16.5q14 15 14.5 32l0.5 17q-1 3 -3 5t-5 2h-63l112 222l60 -92q-32 -23 -51 -58.5t-19 -77.5q0 -69 49.5 -118.5t118.5 -49.5t118.5 49.5t49.5 118.5t-49.5 118.5t-118.5 49.5z
M554 368l-110 -217l-130 217h240zM301 357l130 -215h-95q-2 43 -23.5 79t-55.5 57zM320 142h-140l69 122q31 -19 50 -51t21 -71zM168 -16q-63 0 -107.5 44.5t-44.5 107.5t44.5 107.5t107.5 44.5q18 0 35 -4t32 -12l-76 -134q-1 -1 -1 -3.5t2 -4.5q1 -1 2.5 -2t3.5 0h154
q-4 -61 -48 -102.5t-104 -41.5v0zM728 -16q-63 0 -107.5 44.5t-44.5 107.5q0 38 17 70t46 53l84 -129q1 -2 3 -3t4 -1q1 0 2 0.5t2 1.5q3 2 3.5 5t-1.5 6l-84 129q17 9 36 14.5t40 5.5q63 0 107.5 -44.5t44.5 -107.5t-44.5 -107.5t-107.5 -44.5v0z" />
    <glyph glyph-name="uniE043" unicode="&#xe043;" horiz-adv-x="368" 
d="M365 357q0 27 -8 62t-24 58q-1 1 -3 2t-4 1h-287q-2 0 -4 -1t-3 -2q-16 -23 -24 -58t-8 -62q0 -35 13.5 -71t37 -65t55.5 -48t70 -21v-136h-66q-13 1 -22.5 -8t-9.5 -23v-9q0 -3 2.5 -5.5t5.5 -2.5h192q4 0 6 2.5t2 5.5v8q0 14 -9 23.5t-23 8.5h-62v136q38 2 69.5 21
t54.5 48t36 65t13 71v0zM270 -16h-176v1q0 7 4.5 11.5t11.5 4.5h144q7 0 11.5 -5t4.5 -12zM43 464h279q13 -20 19.5 -49.5t7.5 -53.5q-10 3 -21 4t-24 1q-38 0 -60 -9t-41 -20q-17 -10 -37.5 -18.5t-54.5 -8.5q-35 0 -55 8.5t-38 18.5h-1q0 5 -0.5 10t-0.5 10q0 24 7 55
t20 52v0zM21 317q16 -9 36.5 -16t53.5 -7q38 0 60 9.5t41 19.5q17 11 37.5 19t54.5 8q13 0 23.5 -1t20.5 -4q-5 -64 -52 -121t-114 -57q-59 0 -103.5 46.5t-57.5 103.5v0z" />
    <glyph glyph-name="uniE044" unicode="&#xe044;" horiz-adv-x="448" 
d="M448 330q0 75 -55.5 112.5t-168.5 37.5t-168.5 -37.5t-55.5 -112.5q0 -44 33 -88.5t73.5 -81.5t75 -61t38.5 -26v0v0v0v0q1 0 2 -0.5t2 -0.5t2 0.5t2 0.5v0v0v0v0q4 2 38.5 26t75 60.5t73.5 81.5t33 89v0zM288 330q0 -67 -25.5 -135.5t-38.5 -96.5q-13 28 -38.5 96.5
t-25.5 135.5q0 90 21.5 112t42.5 22t42.5 -22t21.5 -112v0zM144 330q0 -58 18.5 -116.5t34.5 -95.5q-33 35 -75 94.5t-42 117.5q0 56 23.5 88t72.5 42q-16 -18 -24 -50.5t-8 -79.5zM304 330q0 47 -8 79.5t-24 50.5q49 -10 72.5 -42t23.5 -88q0 -58 -42 -117.5t-75 -94.5
q16 37 34.5 95.5t18.5 116.5zM16 330q0 47 24 77.5t74 44.5q-25 -19 -37.5 -49.5t-12.5 -72.5q0 -51 30.5 -102.5t62.5 -89.5q-46 37 -93.5 89.5t-47.5 102.5v0zM291 138q32 38 62.5 89.5t30.5 102.5q0 42 -12.5 72.5t-37.5 49.5q50 -14 74 -44.5t24 -77.5
q0 -50 -47.5 -102.5t-93.5 -89.5zM184 48q-3 0 -5.5 -2.5t-2.5 -5.5v-48q0 -10 7 -17t17 -7h48q10 0 17 7t7 17v48q0 3 -2.5 5.5t-5.5 2.5h-80zM256 -8q0 -4 -2 -6t-6 -2h-48q-4 0 -6 2t-2 6v40h64v-40z" />
    <glyph glyph-name="uniE045" unicode="&#xe045;" horiz-adv-x="400" 
d="M217 128q69 0 118.5 49.5t49.5 118.5t-49.5 118.5t-118.5 49.5q-70 0 -119 -49.5t-49 -118.5t49 -118.5t119 -49.5zM217 448q63 0 107.5 -44.5t44.5 -107.5t-44.5 -107.5t-107.5 -44.5t-107.5 44.5t-44.5 107.5t44.5 107.5t107.5 44.5zM145 32q-14 0 -23 -9t-9 -23v-24
q0 -3 2.5 -5.5t5.5 -2.5h192q3 0 5.5 2.5t2.5 5.5v23q0 14 -9.5 23.5t-22.5 9.5h-144zM305 -1v-15h-176v16q0 7 4.5 11.5t11.5 4.5h144q7 0 11.5 -5t4.5 -12zM209 80v0v0v-26q0 -3 2.5 -5.5t5.5 -2.5t5.5 2.5t2.5 5.5v26v0v0q39 2 74.5 16.5t63.5 41.5l19 -19q2 -2 5.5 -2
t5.5 2q3 2 3 5.5t-3 5.5l-24 25q-3 2 -6 2t-6 -2q-28 -29 -64.5 -44t-76.5 -15t-76.5 15t-64.5 44q-29 28 -44 64.5t-15 76.5t15 76.5t44 64.5q2 3 2 6t-2 6l-25 24q-2 2 -5.5 2t-5.5 -2t-2 -5.5t2 -5.5l19 -19q-28 -30 -43 -68t-15 -79q0 -43 16.5 -82.5t46.5 -70.5
q30 -29 67.5 -45t78.5 -18v0z" />
    <glyph glyph-name="uniE046" unicode="&#xe046;" horiz-adv-x="480" 
d="M9 96q9 -16 30 -24.5t52 -8.5v0v0q13 0 28 1.5t31 5.5q15 -47 38.5 -74.5t51.5 -27.5t51.5 27.5t38.5 74.5q16 -4 31 -5.5t28 -1.5v0v0q31 0 51.5 8.5t30.5 24.5q12 21 0.5 55t-48.5 73q37 39 48.5 73t-0.5 55q-10 16 -30.5 24.5t-51.5 8.5q-13 0 -28 -1.5t-31 -5.5
q-15 47 -38.5 74.5t-51.5 27.5t-51.5 -27.5t-38.5 -74.5q-16 4 -31 5.5t-28 1.5q-31 0 -52 -8.5t-30 -24.5q-12 -21 -0.5 -55t48.5 -73q-37 -39 -48.5 -73t0.5 -55v0zM240 -16q-22 0 -41.5 24.5t-32.5 64.5q18 5 36.5 11.5t37.5 14.5q19 -8 37.5 -14.5t36.5 -11.5
q-13 -40 -32.5 -64.5t-41.5 -24.5zM144 224q0 14 0.5 27.5t2.5 26.5q10 8 21.5 15l23.5 14t24 13l24 12l24 -12t24 -13l23.5 -14t21.5 -15q2 -13 2.5 -26.5t0.5 -27.5t-0.5 -27.5t-2.5 -26.5q-10 -8 -21.5 -15l-23.5 -14t-24 -13l-24 -12l-24 12t-24 13l-23.5 14t-21.5 15
q-2 13 -2.5 26.5t-0.5 27.5zM130 182q-14 10 -26.5 20.5t-23.5 21.5q11 11 23.5 21.5t26.5 20.5q-1 -10 -1.5 -20.5t-0.5 -21.5t0.5 -21.5t1.5 -20.5zM149 299q2 17 5 32t7 28q15 -3 29.5 -8t29.5 -11q-9 -4 -18 -9l-18 -10l-18 -10.5t-17 -11.5zM260 340q15 6 29.5 11
t29.5 8l6.5 -28t5.5 -32q-8 6 -17 11.5l-18 10.5l-18 10t-18 9zM350 266q14 -10 26.5 -20.5t23.5 -21.5q-11 -11 -23.5 -21.5t-26.5 -20.5q1 10 1.5 20.5t0.5 21.5t-0.5 21.5t-1.5 20.5v0zM331 149q-2 -17 -5 -32t-7 -28q-15 3 -29.5 8t-29.5 11q9 4 18 9l18 10l18 10.5
t17 11.5v0zM184 127l18 -10t18 -9q-15 -6 -29.5 -11t-29.5 -8l-6.5 28t-5.5 32q8 -6 17 -11.5zM457 104q-7 -12 -24.5 -18.5t-43.5 -6.5q-12 0 -26 1.5t-29 4.5q5 17 8.5 36t6.5 39q18 13 33.5 26t29.5 26q30 -32 43 -61t2 -47zM389 369q26 0 43.5 -6.5t24.5 -18.5
q11 -18 -2 -47t-43 -61q-14 13 -29.5 26t-34.5 26q-2 20 -5.5 39t-8.5 36q15 3 29 4.5t26 1.5zM240 464q22 0 41.5 -24.5t32.5 -64.5q-18 -5 -36.5 -11.5t-37.5 -14.5q-19 8 -37.5 14.5t-36.5 11.5q13 40 32.5 64.5t41.5 24.5zM23 344q7 12 24.5 18.5t43.5 6.5q12 0 26 -1.5
t29 -4.5q-5 -17 -8.5 -36t-6.5 -39q-18 -13 -33.5 -26t-29.5 -26q-30 32 -43 61t-2 47v0zM68 212q14 -13 29.5 -26t33.5 -26q3 -20 6.5 -39t8.5 -36q-15 -3 -29 -4.5t-26 -1.5v0v0q-26 0 -43.5 6.5t-24.5 18.5q-11 18 2 47t43 61v0zM240 184q17 0 28.5 11.5t11.5 28.5
t-11.5 28.5t-28.5 11.5t-28.5 -11.5t-11.5 -28.5t11.5 -28.5t28.5 -11.5zM240 248q10 0 17 -7t7 -17t-7 -17t-17 -7t-17 7t-7 17t7 17t17 7z" />
    <glyph glyph-name="uniE047" unicode="&#xe047;" horiz-adv-x="384" 
d="M192 480q-79 0 -135.5 -56.5t-56.5 -135.5q0 -60 28 -116t62.5 -100t64 -72t32.5 -30q1 -1 2.5 -1.5t2.5 -0.5t2.5 0.5t2.5 1.5q3 2 32.5 29.5t64 71t62.5 100t28 117.5q0 79 -56.5 135.5t-135.5 56.5v0zM192 -13q-11 9 -40 38.5t-59 70.5t-53.5 90.5t-23.5 101.5
q0 73 51.5 124.5t124.5 51.5t124.5 -51.5t51.5 -124.5q0 -53 -23.5 -102.5t-53.5 -90.5t-59 -70t-40 -38zM192 384q-40 0 -68 -28t-28 -68t28 -68t68 -28t68 28t28 68t-28 68t-68 28zM192 208q-33 0 -56.5 23.5t-23.5 56.5t23.5 56.5t56.5 23.5t56.5 -23.5t23.5 -56.5
t-23.5 -56.5t-56.5 -23.5z" />
    <glyph glyph-name="uniE048" unicode="&#xe048;" 
d="M256 304q-33 0 -56.5 -23t-23.5 -56t23 -57t56 -24h0.5h0.5q33 0 56.5 23t23.5 56t-23 57t-57 24v0zM256 160v-8l-1 8q-26 0 -44.5 19t-18.5 46q0 26 19 44.5t46 18.5q26 0 44.5 -19t18.5 -46q0 -26 -19 -44.5t-45 -18.5v0zM0 224q0 -7 4.5 -11.5t11.5 -4.5t11.5 4.5
t4.5 11.5t-4.5 11.5t-11.5 4.5t-11.5 -4.5t-4.5 -11.5zM480 224q0 -7 4.5 -11.5t11.5 -4.5t11.5 4.5t4.5 11.5t-4.5 11.5t-11.5 4.5t-11.5 -4.5t-4.5 -11.5zM240 464q0 -7 4.5 -11.5t11.5 -4.5t11.5 4.5t4.5 11.5t-4.5 11.5t-11.5 4.5t-11.5 -4.5t-4.5 -11.5zM240 -16
q0 -7 4.5 -11.5t11.5 -4.5t11.5 4.5t4.5 11.5t-4.5 11.5t-11.5 4.5t-11.5 -4.5t-4.5 -11.5zM64 400q0 -7 4.5 -11.5t11.5 -4.5t11.5 4.5t4.5 11.5t-4.5 11.5t-11.5 4.5t-11.5 -4.5t-4.5 -11.5zM416 48q0 -7 4.5 -11.5t11.5 -4.5t11.5 4.5t4.5 11.5t-4.5 11.5t-11.5 4.5
t-11.5 -4.5t-4.5 -11.5zM416 400q0 -7 4.5 -11.5t11.5 -4.5t11.5 4.5t4.5 11.5t-4.5 11.5t-11.5 4.5t-11.5 -4.5t-4.5 -11.5zM64 48q0 -7 4.5 -11.5t11.5 -4.5t11.5 4.5t4.5 11.5t-4.5 11.5t-11.5 4.5t-11.5 -4.5t-4.5 -11.5zM384 223v121q0 3 -2.5 5.5t-5.5 2.5h-120
q-52 0 -89.5 -37t-38.5 -90q0 -25 9.5 -48.5t27.5 -42.5q18 -18 41 -28t49 -10h0.5h0.5v0v0q52 0 89.5 37t38.5 90zM256 112v-8l-1 8q-23 0 -43 9t-36 25t-24 36.5t-8 42.5q0 46 33 78.5t80 32.5v0h111v-113q0 -46 -33 -78.5t-79 -32.5z" />
    <glyph glyph-name="uniE049" unicode="&#xe049;" horiz-adv-x="672" 
d="M570 256q-3 1 -6 -0.5t-4 -5.5q-1 -3 0.5 -6t5.5 -4q46 -15 68 -38t22 -58q0 -31 -22 -54.5t-39 -34.5q-1 -2 -2 -3.5t-1 -3.5v-61q-9 3 -23 11t-27 23q-1 2 -3 2.5t-5 0.5q-3 -1 -6.5 -2t-6.5 -2q-7 -1 -13 -2.5t-12 -1.5q-31 0 -54 7t-45 23q-3 2 -6 1.5t-5 -2.5
q-2 -3 -1.5 -6t2.5 -5q25 -18 50 -26t59 -8q8 0 15 1.5t14 3.5q2 1 4 1.5t4 0.5q23 -23 43.5 -31t21.5 -8h1.5h0.5q1 0 2.5 0.5t2.5 1.5t2 2.5t1 3.5v68q31 22 47.5 48t16.5 52q0 41 -25 68t-77 44zM528 264q0 46 -20 85.5t-55 68.5t-82.5 45.5t-103.5 16.5t-105 -16.5
t-85 -46t-56.5 -69t-20.5 -84.5q0 -54 31.5 -93.5t64.5 -62.5v-106q0 -2 1 -4t3 -3q1 -1 2 -1h2h1.5h1.5q2 1 35.5 20t68.5 57q15 -3 31.5 -5t32.5 -2q57 0 103.5 14.5t79.5 40.5t51.5 63t18.5 82zM275 80q-16 0 -33 2.5t-32 5.5q-3 0 -5 -0.5t-3 -2.5q-25 -27 -50.5 -45
t-39.5 -25v97q0 2 -1 3.5t-2 3.5q-32 21 -62.5 57.5t-30.5 87.5q0 42 19.5 78.5t53.5 63.5t79.5 42.5t98.5 15.5q52 0 97 -15t78 -42t51.5 -63.5t18.5 -79.5q0 -41 -17 -75t-48.5 -58.5t-75 -37.5t-96.5 -13v0zM264 296q-13 0 -22.5 -9.5t-9.5 -22.5t9.5 -22.5t22.5 -9.5
t22.5 9.5t9.5 22.5t-9.5 22.5t-22.5 9.5zM264 248q-7 0 -11.5 4.5t-4.5 11.5t4.5 11.5t11.5 4.5t11.5 -4.5t4.5 -11.5t-4.5 -11.5t-11.5 -4.5zM376 296q-13 0 -22.5 -9.5t-9.5 -22.5t9.5 -22.5t22.5 -9.5t22.5 9.5t9.5 22.5t-9.5 22.5t-22.5 9.5zM376 248q-7 0 -11.5 4.5
t-4.5 11.5t4.5 11.5t11.5 4.5t11.5 -4.5t4.5 -11.5t-4.5 -11.5t-11.5 -4.5zM152 294q-13 0 -22.5 -9t-9.5 -23q0 -13 9.5 -22.5t22.5 -9.5t22.5 9.5t9.5 22.5q0 14 -9.5 23t-22.5 9zM152 246q-7 0 -11.5 5t-4.5 11q0 7 4.5 11.5t11.5 4.5t11.5 -4.5t4.5 -11.5q0 -6 -4.5 -11
t-11.5 -5z" />
    <glyph glyph-name="uniE04A" unicode="&#xe04a;" horiz-adv-x="592" 
d="M432 480q-30 0 -57.5 -10.5t-49.5 -31.5q-9 -7 -16 -15.5t-13 -18.5q-6 10 -13 18.5t-16 15.5q-22 21 -49.5 31.5t-57.5 10.5q-66 0 -113 -47t-47 -113q0 -45 14.5 -82t47.5 -75q24 -28 61.5 -60.5t74 -61t64 -48t29.5 -21.5q1 -1 2.5 -1h2.5h2.5t2.5 1q2 2 29.5 21.5
t64 48t74 61t61.5 60.5q33 38 47.5 75t14.5 82q0 66 -47 113t-113 47v0zM518 173q-21 -24 -54.5 -53.5t-67.5 -56l-62 -47t-38 -28.5q-10 8 -38 28.5l-62 47t-67.5 56t-54.5 53.5q-30 36 -44 70.5t-14 76.5q0 60 42 102t102 42q27 0 52 -9.5t45 -27.5q10 -9 18 -20t14 -23
q2 -4 7 -4t7 4q6 12 14 23t18 20q20 18 45 27.5t52 9.5q60 0 102 -42t42 -102q0 -42 -14 -76.5t-44 -70.5v0z" />
    <glyph glyph-name="uniE04B" unicode="&#xe04b;" horiz-adv-x="672" 
d="M543 272q-2 40 -17 77.5t-42 66.5t-66 46.5t-90 17.5q-46 0 -86 -16t-70 -45t-48 -68t-20 -85q-50 -16 -77 -61.5t-27 -84.5q0 -61 43 -106.5t101 -45.5h384q58 0 101 50.5t43 101.5q0 62 -41.5 105.5t-87.5 46.5zM528 -16h-384q-51 0 -89.5 41t-38.5 95q0 37 32 86.5
t96 49.5h24q3 0 5.5 2.5t2.5 5.5t-2.5 5.5t-5.5 2.5h-24q-6 0 -12 -0.5t-11 -1.5q2 36 16.5 70.5t41 62t64 44.5t85.5 17q52 0 89.5 -18.5t62 -48t36.5 -66.5t12 -75v-24q0 -3 2.5 -5.5t5.5 -2.5t5.5 2.5t2.5 5.5v24v0v0q36 -4 74 -40.5t38 -95.5q0 -46 -38 -91t-90 -45z
" />
    <glyph glyph-name="uniE04C" unicode="&#xe04c;" horiz-adv-x="672" 
d="M543 272q-2 40 -17 77.5t-42 66.5t-66 46.5t-90 17.5q-46 0 -86 -16t-70 -45t-48 -68t-20 -85q-50 -16 -77 -61.5t-27 -84.5q0 -61 43 -106.5t101 -45.5h104q3 0 5.5 2.5t2.5 5.5t-2.5 5.5t-5.5 2.5h-104q-51 0 -89.5 41t-38.5 95q0 37 32 86.5t96 49.5h24q3 0 5.5 2.5
t2.5 5.5t-2.5 5.5t-5.5 2.5h-24q-6 0 -12 -0.5t-11 -1.5q2 36 16.5 70.5t41 62t64 44.5t85.5 17q52 0 89.5 -18.5t62 -48t36.5 -66.5t12 -75v-24q0 -3 2.5 -5.5t5.5 -2.5t5.5 2.5t2.5 5.5v24v0v0q36 -4 74 -40.5t38 -95.5q0 -46 -38 -91t-90 -45h-120q-39 0 -55.5 16.5
t-16.5 55.5v219l65 -65q1 -1 2.5 -1.5t3.5 -0.5q1 0 2.5 0.5t3.5 1.5q2 3 2 6t-2 6l-72 71q-7 7 -13 7t-13 -7l-72 -71q-2 -3 -2 -6t2 -6q3 -2 6 -2t6 2l65 65v-219q0 -46 21 -67t67 -21h120q58 0 101 50.5t43 101.5q0 62 -41.5 105.5t-87.5 46.5z" />
    <glyph glyph-name="uniE04D" unicode="&#xe04d;" horiz-adv-x="672" 
d="M543 272q-2 40 -17 77.5t-42 66.5t-66 46.5t-90 17.5q-12 0 -24.5 -1t-23.5 -4q-4 0 -5.5 -3t-1.5 -6q1 -3 4 -5t6 -1q11 2 22 3t23 1q52 0 89.5 -18.5t62 -48t36.5 -66.5t12 -75v-24q0 -3 2.5 -5.5t5.5 -2.5t5.5 2.5t2.5 5.5v24v0v0q37 -3 74.5 -36t37.5 -100
q0 -57 -37 -96.5t-91 -39.5h-384q-48 0 -88 34.5t-40 101.5q0 49 31 92.5t97 43.5h24q3 0 5.5 2.5t2.5 5.5t-2.5 5.5t-5.5 2.5h-24v32q0 45 26 71t70 26q40 0 68 -28t28 -69v-208l-67 62q-2 2 -5.5 2t-5.5 -3q-2 -2 -2 -5.5t3 -5.5l72 -67q3 -3 6.5 -5t6.5 -2t6.5 1.5
t6.5 5.5l72 67q3 2 3 5.5t-2 5.5q-2 3 -5.5 3t-5.5 -2l-67 -62v208q0 47 -32.5 80t-79.5 33q-51 0 -81.5 -31t-30.5 -82v-33q-63 -6 -95.5 -52t-32.5 -99q0 -55 37 -103.5t107 -48.5h384q61 0 102.5 44t41.5 108q0 76 -43.5 112.5t-85.5 39.5v0z" />
    <glyph glyph-name="uniE04E" unicode="&#xe04e;" horiz-adv-x="672" 
d="M668 271q-2 2 -5.5 1.5t-6.5 -3.5l-37 -45h-1.5h-1.5h-22l28 35q2 2 2 5.5t-3 6.5q-3 2 -6.5 1.5t-5.5 -3.5l-37 -45h-26l29 35q2 2 1.5 5.5t-3.5 6.5q-2 2 -5.5 1.5t-6.5 -3.5l-37 -45h-12q0 53 -20.5 99.5t-55 81.5t-81 55t-99.5 20t-99.5 -20t-81.5 -55t-55 -81.5
t-20 -99.5t20 -99.5t55 -81.5t81.5 -55t99.5 -20q51 0 96 18.5t79.5 51t55.5 76.5t24 94h13l37 -45q2 -2 3.5 -3t3.5 -1q1 0 2.5 0.5t2.5 1.5q3 3 3.5 6.5t-1.5 5.5l-29 35h26l37 -45q1 -2 3 -3t4 -1q1 0 2.5 0.5t2.5 1.5q3 3 3 6.5t-2 5.5l-28 35h22h1.5h1.5l37 -45
q2 -2 3.5 -3t3.5 -1q1 0 2.5 0.5t2.5 1.5q3 3 3.5 6.5t-1.5 5.5l-36 43l36 43q2 2 1.5 5.5t-3.5 6.5v0zM256 -16q-50 0 -93.5 19t-76 51.5t-51.5 76t-19 93.5t19 93.5t51.5 76t76 51.5t93.5 19t93.5 -19t76 -51.5t51.5 -76t19 -93.5h-48q0 80 -56.5 136t-135.5 56
t-135.5 -56.5t-56.5 -135.5t56.5 -135.5t135.5 -56.5q75 0 130 51t61 125h48q-3 -47 -23 -88t-52 -71t-74 -47.5t-90 -17.5zM384 224q0 53 -37.5 90.5t-90.5 37.5t-90.5 -37.5t-37.5 -90.5t37.5 -90.5t90.5 -37.5q49 0 85 32.5t42 79.5h48q-6 -67 -56 -113.5t-119 -46.5
q-73 0 -124.5 51.5t-51.5 124.5t51.5 124.5t124.5 51.5t124.5 -51.5t51.5 -124.5h-48v0zM320 224q0 27 -19 45.5t-45 18.5t-45 -19t-19 -45t19 -45t45 -19q22 0 39 13.5t23 34.5h49q-6 -41 -37.5 -68.5t-73.5 -27.5q-46 0 -79 33t-33 79t33 79t79 33t79 -32.5t33 -79.5h-48
v0zM264 208h37q-5 -14 -17.5 -23t-27.5 -9q-20 0 -34 14t-14 34t14 34t34 14t34 -14t14 -34h-40q-4 0 -6.5 -2t-2.5 -6t2.5 -6t6.5 -2z" />
    <glyph glyph-name="uniE04F" unicode="&#xe04f;" 
d="M256 -33q53 0 99.5 20.5t81.5 55.5t55.5 81.5t20.5 99.5t-20.5 99.5t-55.5 81.5t-81.5 55.5t-99.5 20.5t-99.5 -20.5t-81.5 -55.5t-55.5 -81.5t-20.5 -99.5t20.5 -99.5t55.5 -81.5t81.5 -55.5t99.5 -20.5zM256 463q50 0 93.5 -18.5t76 -51t51 -76t18.5 -93.5t-18.5 -93.5
t-51 -76t-76 -51t-93.5 -18.5t-93.5 18.5t-76 51t-51 76t-18.5 93.5t18.5 93.5t51 76t76 51t93.5 18.5zM160 57q1 0 2 -0.5t2 -0.5q2 0 4 1t3 3l85 140l85 -140q1 -2 3 -3t4 -1q1 0 2 0.5t2 0.5q47 27 72 68t25 91q0 4 -2.5 6t-6.5 2h-170l85 155q2 3 1 6.5t-4 5.5
q-44 25 -96 25t-96 -25q-3 -2 -4 -5.5t1 -6.5l85 -155h-170q-4 0 -6.5 -2t-2.5 -6q0 -50 25 -91t72 -68v0zM431 208q-2 -41 -22.5 -74.5t-57.5 -56.5l-80 131h160v0zM336 380l-80 -146l-80 146q37 19 80 19t80 -19v0zM241 208l-80 -131q-37 23 -57.5 56.5t-22.5 74.5h160z
" />
    <glyph glyph-name="uniE050" unicode="&#xe050;" 
d="M464 200q0 3 -2.5 5.5t-5.5 2.5h-216v216q0 3 -2.5 5.5t-5.5 2.5q-48 0 -90 -18t-73.5 -49.5t-50 -74t-18.5 -90.5q0 -49 17.5 -91.5t49 -74t74 -49t91.5 -17.5q47 0 89 19t73.5 50.5t50.5 73.5t19 89zM16 200q0 44 16.5 82.5t44.5 67.5t66 46.5t81 19.5v-216
q0 -4 2.5 -6t5.5 -2h216q-2 -42 -20 -79.5t-47.5 -66t-68 -45.5t-80.5 -17q-46 0 -85.5 16.5t-68.5 45.5t-45.5 68.5t-16.5 85.5v0zM280 240h224q3 0 5.5 2.5t2.5 5.5q0 48 -18.5 90t-50 73.5t-73.5 50t-90 18.5q-3 0 -5.5 -2.5t-2.5 -5.5v-224q0 -4 2.5 -6t5.5 -2zM288 464
q42 -2 79.5 -18.5t65.5 -45t44.5 -65.5t18.5 -79h-208v208z" />
    <glyph glyph-name="uniE051" unicode="&#xe051;" 
d="M256 481q-53 0 -99.5 -20.5t-81.5 -55.5t-55.5 -81.5t-20.5 -99.5t20.5 -99.5t55.5 -81.5t81.5 -55.5t99.5 -20.5t99.5 20.5t81.5 55.5t55.5 81.5t20.5 99.5t-20.5 99.5t-55.5 81.5t-81.5 55.5t-99.5 20.5v0zM256 -15q-50 0 -93.5 18.5t-76 51t-51 76t-18.5 93.5
t18.5 93.5t51 76t76 51t93.5 18.5t93.5 -18.5t76 -51t51 -76t18.5 -93.5t-18.5 -93.5t-51 -76t-76 -51t-93.5 -18.5zM264 383q4 0 6.5 2.5t2.5 6.5v32q0 4 -2.5 6.5t-6.5 2.5t-6.5 -2.5t-2.5 -6.5v-32q0 -4 2.5 -6.5t6.5 -2.5zM88 241h-32q-4 0 -6.5 -2.5t-2.5 -6.5
t2.5 -6.5t6.5 -2.5h32q4 0 6.5 2.5t2.5 6.5t-2.5 6.5t-6.5 2.5zM415 232q0 -4 2.5 -6.5t6.5 -2.5h32q4 0 6.5 2.5t2.5 6.5t-2.5 6.5t-6.5 2.5h-32q-4 0 -6.5 -2.5t-2.5 -6.5zM137 318q2 0 3.5 0.5t2.5 2.5q3 2 3 5.5t-3 6.5l-25 25q-2 3 -6 3t-6 -3q-3 -2 -3 -6t3 -6l25 -25
q1 -2 3 -2.5t3 -0.5zM382 142q-2 3 -6 3t-6 -3q-3 -2 -3 -6t3 -6l24 -24q1 -2 2.5 -2.5t3.5 -0.5t3.5 0.5t2.5 2.5q3 2 3 6t-3 6l-24 24v0zM398 354q3 2 3 6t-3 6q-2 3 -6 3t-6 -3l-25 -25q-3 -3 -3 -6.5t3 -5.5q1 -2 2.5 -2.5t3.5 -0.5t3.5 0.5t2.5 2.5l25 25v0zM138 134
l-24 -24q-3 -2 -3 -6t3 -6q1 -2 2.5 -2.5t3.5 -0.5t3.5 0.5t2.5 2.5l24 24q3 2 3 6t-3 6q-2 3 -6 3t-6 -3zM312 96h-112q-11 0 -18 -6.5t-7 -17.5v-15q0 -11 7.5 -18.5t17.5 -6.5h112q10 -1 17.5 6.5t7.5 18.5v15q0 11 -7 17.5t-18 6.5zM319 57q0 -3 -1.5 -6t-5.5 -3h-112
q-4 0 -5.5 1.5t-1.5 -1.5v15q0 10 1.5 13.5t5.5 3.5h112q4 0 5.5 -2t1.5 -6v-15v0zM256 181q9 0 16.5 3.5t13.5 9.5q11 11 12.5 26t-6.5 28l42 42q3 2 3 6t-3 6q-2 3 -6 3t-6 -3l-43 -42q-12 7 -27.5 6t-25.5 -12q-13 -12 -13 -30t13 -30q6 -6 13.5 -9.5t16.5 -3.5v0z
M241 239q3 3 7 4.5t8 1.5t8 -1.5t7 -4.5q6 -6 6 -15t-6 -15t-15 -6t-15 6t-6 15t6 15v0z" />
    <glyph glyph-name="uniE052" unicode="&#xe052;" 
d="M1 213q2 -51 22.5 -95.5t55 -78t80 -52.5t97.5 -19t97.5 19t80 52.5t55 78t22.5 95.5q1 1 1 1.5v1.5v0.5v1.5v2.5v3.5q0 53 -20 99.5t-55 81.5t-81.5 55t-99.5 20t-99.5 -20t-81.5 -55t-55 -81.5t-20 -99.5v-3.5v-2.5v-1.5v-0.5v-1.5t1 -1.5zM399 116q-16 7 -33 12t-35 8
q2 18 3 36l2 36h79q-1 -25 -5 -48t-11 -44zM431 208h64q-2 -34 -13 -64.5t-29 -56.5l-19.5 12t-20.5 11q8 22 12.5 47t5.5 51v0zM198 123q14 3 28.5 4t29.5 1t29.5 -1t28.5 -4q-9 -64 -25 -101.5t-33 -37.5t-33 37.5t-25 101.5zM223 -11q-33 11 -60 40.5t-44 71.5
q15 6 31 11t33 9q5 -42 15 -77t25 -55v0zM196 309q15 -3 30 -4t30 -1t30 1t30 4q2 -20 3 -41t1 -44h-128q0 23 1 44t3 41v0zM320 208l-2 -35.5l-2 -33.5q-15 3 -30 4t-30 1t-30 -1t-30 -4q-2 20 -3 37t-1 32h128zM329 121q17 -4 33 -9t31 -11q-17 -42 -43.5 -71.5
t-60.5 -40.5q15 20 25 55t15 77v0zM336 224q0 22 -1 44t-4 44q18 3 35 8t33 12q8 -24 12.5 -51.5t4.5 -56.5h-80zM329 327q-5 42 -15 77t-25 55q33 -11 60 -40.5t44 -71.5q-15 -6 -31 -11t-33 -9zM314 325q-14 -3 -28.5 -4t-29.5 -1t-29.5 1t-28.5 4q9 64 25 101.5t33 37.5
t33 -37.5t25 -101.5zM183 327q-17 4 -33 9t-31 11q17 42 43.5 71.5t60.5 40.5q-15 -20 -25 -55t-15 -77zM181 312q-3 -22 -4 -44t-1 -44h-80q0 29 4.5 56.5t12.5 51.5q16 -7 33 -12t35 -8zM176 208l2 -36t3 -36q-18 -3 -35 -8t-33 -12q-7 21 -11 44t-5 48h79zM99 110
q-11 -5 -20.5 -11l-19.5 -12q-18 26 -29 56.5t-13 64.5h64q1 -26 5.5 -51t12.5 -47zM69 74q8 6 17 11l18 10q12 -30 29 -54.5t38 -40.5q-30 11 -56 30t-46 44v0zM341 0q21 16 38 40.5t29 54.5l18 -10t17 -11q-20 -25 -46 -44t-56 -30v0zM432 224q0 31 -5 59.5t-14 54.5
q11 5 20.5 11l19.5 12q20 -29 31.5 -64t11.5 -73h-64zM443 374q-8 -6 -17 -11l-18 -10q-12 30 -29 54.5t-38 40.5q30 -11 56 -30t46 -44zM171 448q-21 -16 -38 -40.5t-29 -54.5l-18 10t-17 11q20 25 46 44t56 30zM59 361l19.5 -12t20.5 -11q-9 -26 -14 -54.5t-5 -59.5h-64
q0 38 11.5 73t31.5 64z" />
    <glyph glyph-name="uniE053" unicode="&#xe053;" 
d="M0 224q0 -53 20 -99.5t55 -81.5t81.5 -55t99.5 -20t99.5 20t81.5 55t55 81.5t20 99.5t-20 99.5t-55 81.5t-81.5 55t-99.5 20t-99.5 -20t-81.5 -55t-55 -81.5t-20 -99.5zM256 464q50 0 93.5 -19t76 -51.5t51.5 -76t19 -93.5t-19 -93.5t-51.5 -76t-76 -51.5t-93.5 -19
t-93.5 19t-76 51.5t-51.5 76t-19 93.5t19 93.5t51.5 76t76 51.5t93.5 19zM256 16q43 0 81 16.5t66 44.5t44.5 66t16.5 81t-16.5 81t-44.5 66t-66 44.5t-81 16.5t-81 -16.5t-66 -44.5t-44.5 -66t-16.5 -81t16.5 -81t44.5 -66t66 -44.5t81 -16.5zM240 415v-24q0 -4 2.5 -6
t5.5 -2t5.5 2t2.5 6v25q75 0 130 -51t61 -125h-24q-4 0 -6 -2.5t-2 -5.5t2 -5.5t6 -2.5h25q0 -79 -56.5 -135.5t-135.5 -56.5v25q0 4 -2.5 6t-5.5 2t-5.5 -2t-2.5 -6v-24q-74 6 -125 61t-51 130h25q4 0 6 2.5t2 5.5t-2 5.5t-6 2.5h-24q6 70 55.5 119.5t119.5 55.5v0z
M150 111q1 0 2.5 0.5t2.5 1.5l90 64q2 0 5 -0.5t6 -0.5q20 0 34 14t14 34q0 3 -0.5 5.5t-0.5 5.5l65 91q2 3 2 6t-3 5q-2 2 -4.5 2t-5.5 -1l-92 -67q-2 0 -4.5 0.5t-4.5 0.5q-20 0 -34 -14t-14 -34v-4.5t1 -4.5l-65 -91q-2 -2 -2 -5t3 -5q1 -1 2.5 -2t2.5 -1v0zM224 224
q0 13 9.5 22.5t22.5 9.5t22.5 -9.5t9.5 -22.5t-9.5 -22.5t-22.5 -9.5t-22.5 9.5t-9.5 22.5zM327 296l-32 -44q-3 3 -6 6.5t-7 5.5l45 32v0zM216 197q2 -3 5.5 -6t6.5 -6l-43 -31z" />
    <glyph glyph-name="uniE054" unicode="&#xe054;" 
d="M92 435l-47 -47q-3 -2 -3 -5.5t3 -5.5q1 -1 2.5 -1.5t2.5 -0.5q2 0 3.5 0.5t2.5 1.5l47 47q2 2 2 5.5t-2 5.5q-2 3 -5.5 3t-5.5 -3zM456 71l-47 -47q-2 -2 -2 -5.5t2 -5.5q1 -1 2.5 -2t3.5 -1q1 0 2.5 1t2.5 2l47 47q3 2 3 5.5t-3 5.5q-2 2 -5.5 2.5t-5.5 -2.5zM426 432
q-2 2 -5.5 2t-5.5 -2t-2 -5.5t2 -5.5l44 -44q1 -1 2.5 -1.5t3.5 -0.5q1 0 2.5 0.5t2.5 1.5q3 2 3 5.5t-3 5.5l-44 44v0zM48 65q-2 -2 -2 -5.5t2 -5.5l44 -44q1 -2 2.5 -2.5t2.5 -0.5q2 0 3.5 0.5t2.5 2.5q2 2 2 5.5t-2 5.5l-44 44q-2 2 -5.5 2t-5.5 -2zM73 322q-3 -4 -5 -9
t-4 -9q-16 -38 -16 -80t16 -80q2 -5 5 -11t5 -11q7 -12 16 -23.5t19 -21.5q11 -12 24.5 -21.5t27.5 -16.5l8 -4t7 -3q19 -8 39 -12t41 -4t41 4t39 12v0v0q4 2 9 4t9 5q14 7 26 16t23 20t20 23t16 26q3 4 5 9t4 9v0v0q16 38 16 80t-16 80q-1 3 -3 7l-4 8q-7 14 -16.5 27.5
t-21.5 24.5q-10 10 -21.5 19t-23.5 16q-5 2 -11 5t-11 5q-38 16 -80 16t-80 -16v0v0q-4 -2 -9 -4t-9 -5q-14 -7 -26 -16t-23 -20t-20 -23t-16 -26v0zM226 297v0v0q5 3 10 4t11 2q5 1 11 0.5t11 -1.5q5 0 9 -1.5t8 -3.5v0v0q8 -3 14.5 -7t11.5 -10q6 -5 10 -11.5t7 -14.5v0v0
v0v0q3 -6 4.5 -12t1.5 -13q1 -3 0.5 -7t-0.5 -7q-1 -6 -2 -11t-4 -10v0v0v0v0q-3 -8 -7 -14.5t-10 -11.5q-5 -6 -11.5 -10t-14.5 -7v0v0q-5 -2 -10 -3.5t-11 -2.5h-6.5h-7.5q-7 0 -13 1.5t-12 4.5q-8 3 -14.5 7t-11.5 10q-6 5 -10 11.5t-7 14.5q-2 4 -3.5 8t-1.5 9
q-1 5 -1.5 11t0.5 11q1 6 2 11t4 10v0v0v0v0q3 8 7 14.5t10 11.5q5 6 11.5 10t14.5 7v0zM436 290q12 -32 12 -66t-12 -66l-89 37q1 4 2 8.5t2 9.5q0 4 0.5 8.5t-0.5 8.5q0 6 -1 11.5t-3 11.5zM162 208q0 -3 1 -6.5t2 -6.5l-89 -37q-12 32 -12 66t12 66l89 -37q-1 -4 -2 -8.5
t-2 -9.5q-1 -7 -0.5 -13.5t1.5 -13.5v0zM120 88q-9 9 -17 20t-15 22q-1 3 -3 6.5t-3 6.5l89 37l8 -12t9 -12q6 -5 12 -9l12 -8l-37 -89q-1 0 -3 1t-3 2q-14 7 -26 15.5t-23 19.5v0zM190 44l37 89q6 -2 11.5 -3t11.5 -1q4 -1 8.5 -0.5t8.5 0.5q5 1 9.5 2t8.5 2l37 -89
q-32 -12 -66 -12t-66 12zM392 88q-10 -10 -21.5 -18.5t-23.5 -14.5q-3 -2 -5.5 -3t-4.5 -2l-37 89l12 8t12 9q5 6 9 12l8 12l89 -37q-1 -2 -2 -4.5t-3 -5.5q-6 -12 -14.5 -23.5t-18.5 -21.5v0zM392 360q11 -11 19.5 -23t15.5 -26q1 -1 1.5 -3t1.5 -3l-89 -37l-8 12t-9 12
q-6 5 -12 9l-12 8l37 89q3 -1 6.5 -3t6.5 -3q11 -7 22 -15t20 -17zM322 404l-37 -89q-3 1 -6.5 2t-6.5 1q-7 1 -13.5 1.5t-13.5 -0.5q-5 -1 -9.5 -2t-8.5 -2l-37 89q32 12 66 12t66 -12zM165 393q3 2 5.5 3t4.5 2l37 -89l-12 -8t-12 -9q-5 -6 -9 -12l-8 -12l-89 37
q1 2 2 4.5t3 5.5q6 12 14.5 23.5t18.5 21.5t21.5 18.5t23.5 14.5zM375 15q-55 -31 -119 -31t-119 31q-3 2 -6 1t-5 -4q-1 -3 -0.5 -6t3.5 -5q30 -16 62 -24.5t65 -8.5t65 8.5t62 24.5q3 2 3.5 5t-0.5 6q-2 3 -5 4t-6 -1zM33 351q-33 -59 -33 -127t33 -127q2 -2 3.5 -3
t3.5 -1q1 0 2 0.5t2 0.5q3 2 4 5t-1 6q-31 55 -31 119t31 119q2 3 1 6t-4 5q-3 1 -6 0t-5 -3v0zM479 97q33 59 33 127t-33 127q-2 2 -5 3t-6 0q-3 -2 -4 -5t1 -6q31 -55 31 -119t-31 -119q-2 -3 -1 -6t4 -5q1 0 2 -0.5t2 -0.5q2 0 3.5 1t3.5 3v0zM137 433q55 31 119 31
t119 -31q1 -1 2 -1h2q2 0 4 1t3 3q1 3 0.5 6t-3.5 5q-59 33 -127 33t-127 -33q-2 -2 -3 -5t0 -6q2 -3 5 -4t6 1v0z" />
    <glyph glyph-name="uniE055" unicode="&#xe055;" 
d="M256 -32q53 0 99.5 20t81.5 55t55 81.5t20 99.5t-20 99.5t-55 81.5t-81.5 55t-99.5 20t-99.5 -20t-81.5 -55t-55 -81.5t-20 -99.5t20 -99.5t55 -81.5t81.5 -55t99.5 -20zM256 464q50 0 93.5 -19t76 -51.5t51.5 -76t19 -93.5t-19 -93.5t-51.5 -76t-76 -51.5t-93.5 -19
t-93.5 19t-76 51.5t-51.5 76t-19 93.5t19 93.5t51.5 76t76 51.5t93.5 19zM321 132q1 -1 2.5 -2t3.5 -1q1 0 2.5 1t2.5 2q3 2 3 5.5t-3 5.5l-76 76v112q0 3 -2.5 5.5t-5.5 2.5t-5.5 -2.5t-2.5 -5.5v-115q0 -2 0.5 -3.5t1.5 -2.5zM48 224q0 -7 4.5 -11.5t11.5 -4.5t11.5 4.5
t4.5 11.5t-4.5 11.5t-11.5 4.5t-11.5 -4.5t-4.5 -11.5zM432 224q0 -7 4.5 -11.5t11.5 -4.5t11.5 4.5t4.5 11.5t-4.5 11.5t-11.5 4.5t-11.5 -4.5t-4.5 -11.5zM240 416q0 -7 4.5 -11.5t11.5 -4.5t11.5 4.5t4.5 11.5t-4.5 11.5t-11.5 4.5t-11.5 -4.5t-4.5 -11.5zM240 32
q0 -7 4.5 -11.5t11.5 -4.5t11.5 4.5t4.5 11.5t-4.5 11.5t-11.5 4.5t-11.5 -4.5t-4.5 -11.5zM112 352q0 -7 4.5 -11.5t11.5 -4.5t11.5 4.5t4.5 11.5t-4.5 11.5t-11.5 4.5t-11.5 -4.5t-4.5 -11.5zM368 96q0 -7 4.5 -11.5t11.5 -4.5t11.5 4.5t4.5 11.5t-4.5 11.5t-11.5 4.5
t-11.5 -4.5t-4.5 -11.5zM384 352q0 -7 4.5 -11.5t11.5 -4.5t11.5 4.5t4.5 11.5t-4.5 11.5t-11.5 4.5t-11.5 -4.5t-4.5 -11.5zM112 96q0 -7 4.5 -11.5t11.5 -4.5t11.5 4.5t4.5 11.5t-4.5 11.5t-11.5 4.5t-11.5 -4.5t-4.5 -11.5z" />
    <glyph glyph-name="uniE056" unicode="&#xe056;" 
d="M256 -32q53 0 99.5 20t81.5 55t55 81.5t20 99.5t-20 99.5t-55 81.5t-81.5 55t-99.5 20t-99.5 -20t-81.5 -55t-55 -81.5t-20 -99.5t20 -99.5t55 -81.5t81.5 -55t99.5 -20zM123 424q-10 -29 -15 -58t-5 -59q1 -21 4.5 -42.5t10.5 -42.5q5 -17 12 -32.5t15 -29.5
q1 -2 2.5 -4.5t3.5 -4.5q1 -2 2.5 -3t3.5 -1q1 0 2.5 0.5t2.5 0.5q2 2 3 5.5t-1 5.5q-1 2 -2.5 4.5t-2.5 4.5q-8 14 -14.5 28.5t-11.5 29.5q-6 20 -9.5 40.5t-4.5 41.5q0 31 5.5 62t18.5 61l1.5 3t0.5 3q25 13 53 20t58 7q29 0 55.5 -6.5t51.5 -18.5q-30 -5 -58 -15.5
t-53 -25.5q-19 -12 -35.5 -25.5t-31.5 -30.5q-12 -12 -22 -26t-18 -28q-1 -2 -2.5 -4.5t-2.5 -4.5q-2 -3 -1 -6.5t4 -4.5q1 -1 2 -1h2q2 0 4 1t3 3t2.5 4.5t2.5 4.5q8 14 17.5 26.5t20.5 24.5q14 16 30 29t33 24q27 17 56.5 27t61.5 14q2 1 3.5 1h3.5q47 -30 77 -79t33 -108
q-19 23 -41.5 42t-49.5 33q-19 11 -39.5 18.5t-41.5 12.5q-20 4 -39.5 6t-38.5 1q-3 0 -5 -2.5t-2 -5.5q0 -4 2 -6t6 -2v0v0q18 0 36.5 -1.5t36.5 -5.5q21 -4 40.5 -11.5t37.5 -17.5q27 -14 51 -35t44 -47l2 -2t1 -2q-2 -60 -31 -109.5t-75 -80.5q10 29 15 58t5 59
q-1 21 -4.5 42.5t-10.5 42.5q-5 17 -12 32.5t-15 29.5q-1 2 -2.5 4.5t-3.5 4.5q-1 3 -4.5 3.5t-6.5 -0.5q-2 -2 -3 -5.5t1 -5.5q1 -2 2.5 -4.5t2.5 -4.5q8 -14 14.5 -28.5t11.5 -29.5q6 -20 9.5 -40.5t4.5 -41.5q0 -31 -5.5 -62t-18.5 -61l-1.5 -3t-0.5 -3q-25 -13 -53 -20
t-58 -7q-29 0 -55.5 6.5t-51.5 18.5q30 5 58 15.5t53 25.5q19 12 35.5 25.5t31.5 30.5q12 12 22 26t18 28q1 2 2.5 4.5t2.5 4.5q2 3 1 6.5t-4 4.5q-3 2 -6.5 1t-4.5 -4q-1 -2 -2.5 -4.5t-2.5 -4.5q-8 -14 -17.5 -26.5t-20.5 -24.5q-14 -16 -30 -29t-33 -24
q-27 -16 -56.5 -26.5t-61.5 -14.5q-2 -1 -3.5 -1h-3.5q-47 30 -77 79t-33 108q19 -23 41.5 -42t49.5 -33q19 -11 39.5 -18.5t41.5 -12.5q17 -3 33.5 -5t33.5 -2h5.5h5.5t5 2.5t2 5.5q0 4 -2 6t-6 2q-18 0 -36.5 1.5t-36.5 5.5q-21 4 -40.5 11.5t-37.5 17.5q-27 14 -51 35
t-44 47l-2 2t-1 2q2 60 31 109.5t75 80.5v0z" />
    <glyph glyph-name="uniE057" unicode="&#xe057;" 
d="M256 -32q53 0 99.5 20t81.5 55t55 81.5t20 99.5t-20 99.5t-55 81.5t-81.5 55t-99.5 20t-99.5 -20t-81.5 -55t-55 -81.5t-20 -99.5t20 -99.5t55 -81.5t81.5 -55t99.5 -20zM256 464q50 0 93.5 -19t76 -51.5t51.5 -76t19 -93.5t-19 -93.5t-51.5 -76t-76 -51.5t-93.5 -19
t-93.5 19t-76 51.5t-51.5 76t-19 93.5t19 93.5t51.5 76t76 51.5t93.5 19zM172 262q6 -2 12 -1.5t12 4.5q3 2 4 5t-1 6t-5 4t-6 -1t-6 -2.5t-5 0.5q-3 1 -5.5 3t-4.5 6q-2 3 -2.5 6.5t-0.5 7.5q1 3 3 6t6 5q7 5 15.5 3t15.5 -7q10 -8 15 -22t5 -37q0 -34 -15 -70t-45 -51
q-3 -1 -4 -4.5t1 -6.5q1 -2 3 -3t4 -1h2t2 1q35 18 51.5 58.5t16.5 76.5q0 27 -6.5 44.5t-20.5 27.5q-11 9 -24.5 10t-24.5 -5q-6 -4 -10 -9.5t-5 -12.5q-2 -7 -0.5 -13.5t4.5 -12.5q4 -6 8.5 -10t10.5 -5v0zM300 262q6 -2 12 -1.5t12 4.5q3 2 4 5t-1 6t-5 4t-6 -1t-6 -2.5
t-5 0.5q-3 1 -5.5 3t-4.5 6q-2 3 -2.5 6.5t-0.5 7.5q1 3 3 6t6 5q7 5 15.5 3t15.5 -7q10 -8 15 -22t5 -37q0 -34 -15 -70t-45 -51q-3 -1 -4 -4.5t1 -6.5q1 -2 3 -3t4 -1h2t2 1q35 18 51.5 58.5t16.5 76.5q0 27 -6.5 44.5t-20.5 27.5q-11 9 -24.5 10t-24.5 -5q-6 -4 -10 -9.5
t-5 -12.5q-2 -7 -0.5 -13.5t4.5 -12.5q4 -6 8.5 -10t10.5 -5v0z" />
    <glyph glyph-name="uniE058" unicode="&#xe058;" 
d="M272 376q0 3 -2.5 5.5t-5.5 2.5t-5.5 -2.5t-2.5 -5.5v-136h-152q-3 0 -5.5 -2.5t-2.5 -5.5t2.5 -5.5t5.5 -2.5h152v-152q0 -3 2.5 -5.5t5.5 -2.5t5.5 2.5t2.5 5.5v152h152q3 0 5.5 2.5t2.5 5.5t-2.5 5.5t-5.5 2.5h-152v136zM505 240h-42q-6 76 -60.5 130.5t-130.5 60.5
v41q0 3 -2.5 5.5t-5.5 2.5t-5.5 -2.5t-2.5 -5.5v-40q-41 0 -77.5 -15t-64 -41t-45 -61t-20.5 -75h-40q-3 0 -5.5 -2.5t-2.5 -5.5t2.5 -5.5t5.5 -2.5h39q0 -43 16.5 -81t44.5 -66t66 -44.5t81 -16.5v-40q0 -3 2.5 -5.5t5.5 -2.5t5.5 2.5t2.5 5.5v41q40 3 75 20.5t61 45t41 64
t15 77.5h41q3 0 5.5 2.5t2.5 5.5t-2.5 5.5t-5.5 2.5v0zM256 32q-79 0 -135.5 56.5t-56.5 135.5t56.5 135.5t135.5 56.5t135.5 -56.5t56.5 -135.5t-56.5 -135.5t-135.5 -56.5z" />
    <glyph glyph-name="uniE059" unicode="&#xe059;" horiz-adv-x="480" 
d="M240 448q-46 0 -87 -17.5t-71.5 -48t-48 -71.5t-17.5 -87t17.5 -87t48 -71.5t71.5 -48t87 -17.5t87 17.5t71.5 48t48 71.5t17.5 87t-17.5 87t-48 71.5t-71.5 48t-87 17.5zM240 16q-43 0 -81 16.5t-66 44.5t-44.5 66t-16.5 81t16.5 81t44.5 66t66 44.5t81 16.5t81 -16.5
t66 -44.5t44.5 -66t16.5 -81t-16.5 -81t-44.5 -66t-66 -44.5t-81 -16.5zM120 480q-50 0 -85 -35t-35 -85v-17q0 -3 2.5 -5.5t5.5 -2.5t5.5 2.5t2.5 5.5v17q0 43 30.5 73.5t73.5 30.5h14q3 0 5.5 2.5t2.5 5.5t-2.5 5.5t-5.5 2.5h-14zM358 480h-14q-3 0 -5.5 -2.5t-2.5 -5.5
t2.5 -5.5t5.5 -2.5h14q43 0 73.5 -30.5t30.5 -73.5v-17q0 -3 2.5 -5.5t5.5 -2.5t5.5 2.5t2.5 5.5v17q0 50 -35 85t-85 35zM240 219v112q0 3 -2.5 5.5t-5.5 2.5t-5.5 -2.5t-2.5 -5.5v-115q0 -2 0.5 -3.5t1.5 -2.5l79 -78q1 -1 2.5 -2t3.5 -1q1 0 2.5 1t2.5 2q3 2 3 5.5
t-3 5.5zM30 -29l48 64q2 3 1.5 6t-2.5 5q-3 2 -6 1.5t-5 -2.5l-48 -64q-2 -3 -1.5 -6t2.5 -5q1 -1 2.5 -1.5t2.5 -0.5q2 0 3.5 1t2.5 2v0zM414 45q-2 2 -5 2.5t-6 -1.5q-2 -2 -2.5 -5t1.5 -6l48 -64q1 -1 2.5 -2t3.5 -1q1 0 2.5 0.5t2.5 1.5q2 2 2.5 5t-1.5 6z" />
    </font>
</defs>
</svg>
